<?xml version="1.0" encoding="UTF-8" standalone="no"?>
<!DOCTYPE svg PUBLIC "-//W3C//DTD SVG 1.1//EN"
"http://www.w3.org/Graphics/SVG/1.1/DTD/svg11.dtd">


<!-- Page 1 -->
<svg x="0" y="0" width="1466" height="825" viewBox="0 0 1466 825" version="1.1" xmlns="http://www.w3.org/2000/svg" xmlns:xlink="http://www.w3.org/1999/xlink"
style="display: block;margin-left: auto;margin-right: auto;">
<defs>
<clipPath id="c_1"><path d="M0,0H1466V825H0Z"/></clipPath>
<clipPath id="c0_1"><path d="M0,825V0H1466.6V825Z"/></clipPath>
<clipPath id="c1_1"><path d="M977.1,323.5c-8,0,-15.9,-2.2,-22.9,-6.2c-7,-4,-12.7,-9.8,-16.8,-16.8c-4,-6.9,-6.1,-14.8,-6.1,-22.9V94.2c0,-8,2.1,-15.9,6.2,-22.9c4,-7,9.8,-12.7,16.7,-16.8c7,-4,14.9,-6.1,23,-6.1h221.3c8.1,0,16,2.1,22.9,6.2c7,4,12.8,9.8,16.8,16.7c4,7,6.2,14.9,6.2,23V277.6c0,8,-2.1,16,-6.2,22.9c-4,7,-9.8,12.8,-16.7,16.8c-7,4,-14.9,6.1,-23,6.1l-221.4,.1Z"/></clipPath>
<clipPath id="c2_1"><path d="M961.3,801.8c-11.1,0,-22,-2.9,-31.7,-8.4C920,787.8,912,779.8,906.5,770.2C900.9,760.6,898,749.7,898,738.6V394.2c0,-11.1,2.9,-22,8.5,-31.6C912,353,920,345,929.7,339.4c9.6,-5.5,20.5,-8.5,31.6,-8.5l253.1,.1c11.1,0,22,2.9,31.6,8.4c9.6,5.6,17.6,13.6,23.2,23.2c5.5,9.6,8.5,20.5,8.5,31.6V738.5c0,11.1,-2.9,22,-8.5,31.7c-5.5,9.6,-13.5,17.6,-23.2,23.1c-9.6,5.6,-20.5,8.5,-31.6,8.5H961.3Z"/></clipPath>
<clipPath id="c3_1"><path d="M929.8,651.2c-2.2,0,-4.4,-.6,-6.3,-1.7c-1.9,-1.1,-3.5,-2.7,-4.6,-4.6c-1.1,-1.9,-1.6,-4,-1.6,-6.2V588.4c0,-2.2,.6,-4.4,1.7,-6.3c1.1,-1.9,2.7,-3.5,4.6,-4.6c1.9,-1.1,4,-1.6,6.2,-1.6h314.5c2.2,0,4.3,.6,6.2,1.7c1.9,1.1,3.5,2.7,4.6,4.6c1.1,1.9,1.7,4,1.7,6.3v50.2c0,2.2,-.6,4.3,-1.7,6.2c-1.1,1.9,-2.7,3.5,-4.6,4.6c-1.9,1.1,-4,1.7,-6.2,1.7H929.8Z"/></clipPath>
<clipPath id="c4_1"><path d="M929.8,746.4c-2.2,0,-4.4,-.5,-6.3,-1.6c-1.9,-1.1,-3.5,-2.7,-4.6,-4.6c-1.1,-1.9,-1.6,-4.1,-1.6,-6.3V683.6c0,-2.2,.6,-4.3,1.7,-6.2c1.1,-1.9,2.7,-3.5,4.6,-4.6c1.9,-1.1,4,-1.7,6.2,-1.7h314.5c2.2,0,4.3,.6,6.2,1.7c1.9,1.1,3.5,2.7,4.6,4.6c1.1,1.9,1.7,4.1,1.7,6.3v50.2c0,2.2,-.6,4.4,-1.7,6.3c-1.1,1.9,-2.7,3.5,-4.6,4.6c-1.9,1.1,-4,1.6,-6.2,1.6H929.8Z"/></clipPath>
<clipPath id="c5_1"><path d="M920.3,480.6c-2.4,0,-4.7,-.6,-6.7,-1.8c-2,-1.1,-3.7,-2.8,-4.9,-4.9c-1.2,-2,-1.8,-4.3,-1.8,-6.6V413.8c0,-2.4,.7,-4.7,1.8,-6.7c1.2,-2.1,2.9,-3.7,4.9,-4.9c2.1,-1.2,4.4,-1.8,6.7,-1.8h335c2.4,0,4.7,.6,6.7,1.8c2.1,1.2,3.7,2.9,4.9,4.9c1.2,2,1.8,4.3,1.8,6.7v53.4c0,2.4,-.6,4.7,-1.8,6.7c-1.1,2.1,-2.8,3.7,-4.9,4.9c-2,1.2,-4.3,1.8,-6.6,1.8H920.3Z"/></clipPath>
<clipPath id="c6_1"><path d="M577.7,566.4c-9.8,0,-19.5,-2.6,-28,-7.5c-8.5,-4.9,-15.6,-12,-20.5,-20.5c-4.9,-8.5,-7.5,-18.1,-7.5,-27.9l.1,-282.6c0,-9.8,2.5,-19.4,7.5,-27.9c4.9,-8.5,11.9,-15.6,20.4,-20.5c8.5,-4.9,18.2,-7.5,28,-7.5H801.4c9.9,0,19.5,2.6,28,7.5c8.5,4.9,15.6,12,20.5,20.5c4.9,8.5,7.5,18.1,7.5,28V510.5c0,9.8,-2.6,19.4,-7.5,27.9c-4.9,8.5,-12,15.6,-20.5,20.5c-8.5,4.9,-18.1,7.5,-27.9,7.5H577.7Z"/></clipPath>
<clipPath id="c7_1"><path d="M1277.2,485.8V440h122.2v45.8Z"/></clipPath>
<clipPath id="c8_1"><path d="M1237.5,261.3V215.4h161.9v45.9Z"/></clipPath>

<style type="text/css"><![CDATA[
text { white-space: pre; }
path, image { pointer-events: none; }
text::-moz-selection {
	color: transparent;
	background: rgba(0, 106, 173, 0.4);
}
text::selection {
	color: transparent;
	background: rgba(0, 106, 173, 0.4);
}

.s1_1{
font-size: 27.50px;
fill: TRANSPARENT;
}
.s2_1{
font-size: 27.50px;
fill: TRANSPARENT;
}

.g0_1{
fill: #FFFFFF;
}
.g1_1{
fill: #FFDA9E;
}
.g2_1{
fill: #FFD99C;
}
.g3_1{
fill: #FFD899;
}
.g4_1{
fill: #FFD897;
}
.g5_1{
fill: #FFD795;
}
.g6_1{
fill: #FFD692;
}
.g7_1{
fill: #FFD590;
}
.g8_1{
fill: none;
stroke: #FFC000;
stroke-width: 0.779;
stroke-linecap: butt;
stroke-linejoin: miter;
stroke-miterlimit: 3;
}
.g9_1{
fill: #4472C4;
}
.ga_1{
fill: none;
stroke: #325490;
stroke-width: 1.515;
stroke-linecap: butt;
stroke-linejoin: miter;
stroke-miterlimit: 3;
}
.gb_1{
fill: none;
stroke: #70AD47;
stroke-width: 1.515;
stroke-linecap: butt;
stroke-linejoin: miter;
stroke-miterlimit: 3;
}
.gc_1{
fill: #D1D1D1;
}
.gd_1{
fill: #CFCFCF;
}
.ge_1{
fill: #CCCCCC;
}
.gf_1{
fill: #CACACA;
}
.gg_1{
fill: #C7C7C7;
}
.gh_1{
fill: none;
stroke: #A5A5A5;
stroke-width: 0.779;
stroke-linecap: butt;
stroke-linejoin: miter;
stroke-miterlimit: 3;
}
.gi_1{
fill: #B5D4A7;
}
.gj_1{
fill: #B3D3A5;
}
.gk_1{
fill: #B1D2A2;
}
.gl_1{
fill: #AFD1A0;
}
.gm_1{
fill: #ADCF9E;
}
.gn_1{
fill: #ABCE9B;
}
.go_1{
fill: #A9CD99;
}
.gp_1{
fill: none;
stroke: #70AD47;
stroke-width: 0.779;
stroke-linecap: butt;
stroke-linejoin: miter;
stroke-miterlimit: 3;
}
.gq_1{
fill: #F7BCA4;
}
.gr_1{
fill: #F7BAA2;
}
.gs_1{
fill: #F6B89F;
}
.gt_1{
fill: #F6B79D;
}
.gu_1{
fill: #F5B59B;
}
.gv_1{
fill: #F5B398;
}
.gw_1{
fill: #F4B196;
}
.gx_1{
fill: none;
stroke: #ED7D31;
stroke-width: 0.779;
stroke-linecap: butt;
stroke-linejoin: miter;
stroke-miterlimit: 3;
}
.gy_1{
fill: none;
stroke: #ED7D31;
stroke-width: 3.074;
stroke-linecap: butt;
stroke-linejoin: miter;
}
.gz_1{
fill: #ED7D31;
}
.g10_1{
fill: #B1CBE9;
}
.g11_1{
fill: #AFCAE8;
}
.g12_1{
fill: #ADC8E8;
}
.g13_1{
fill: #ABC7E7;
}
.g14_1{
fill: #A8C5E6;
}
.g15_1{
fill: #A6C4E5;
}
.g16_1{
fill: #A4C2E5;
}
.g17_1{
fill: #A2C1E4;
}
.g18_1{
fill: none;
stroke: #5B9BD5;
stroke-width: 0.779;
stroke-linecap: butt;
stroke-linejoin: miter;
stroke-miterlimit: 3;
}
.g19_1{
fill: none;
stroke: #000000;
stroke-width: 6.495;
stroke-linecap: butt;
stroke-linejoin: miter;
}
.g1a_1{
}
.g1b_1{
fill: #70AD47;
}
.g1c_1{
fill: none;
stroke: #527F34;
stroke-width: 1.515;
stroke-linecap: butt;
stroke-linejoin: miter;
stroke-miterlimit: 3;
}
.g1d_1{
fill: none;
stroke: #70AD47;
stroke-width: 4.59;
stroke-linecap: butt;
stroke-linejoin: miter;
}

]]></style>

<path d="M391,473c0,0,52,0,92,15c0,0,41,15,68,42c0,0,27,27,41,64c0,0,14,37,14,82c0,0,0,94,-53,146c0,0,-53,52,-162,52H245V473ZM110,0V980H391c0,0,89,0,155,-21c0,0,66,-22,110,-62c0,0,43,-39,64,-95c0,0,22,-57,22,-126c0,0,0,-69,-23,-125c0,0,-23,-57,-67,-99c0,0,-45,-41,-110,-64c0,0,-65,-22,-151,-22H245V0Z"
id="f0_2"
transform="scale(0.001,-0.001)"/>

<path d="M373,507c0,0,54,0,94,13c0,0,41,14,69,39c0,0,27,26,41,61c0,0,14,36,14,78c0,0,0,176,-213,176H245V507ZM110,0V980H378c0,0,90,0,155,-19c0,0,65,-19,107,-54c0,0,43,-36,63,-86c0,0,20,-50,20,-113c0,0,0,-52,-15,-96c0,0,-16,-45,-44,-81c0,0,-29,-36,-71,-61c0,0,-42,-26,-95,-40c0,0,13,-8,24,-18c0,0,11,-10,22,-24L807,0H686c0,0,-35,0,-54,28L400,377c0,0,-11,16,-24,23c0,0,-13,7,-40,7H245V0Z"
id="f0_3"
transform="scale(0.001,-0.001)"/>

<path d="M507,107c0,0,71,0,129,26c0,0,58,26,98,75c0,0,41,50,63,121c0,0,22,72,22,161c0,0,0,90,-22,161c0,0,-22,71,-63,121c0,0,-40,49,-98,76c0,0,-58,26,-129,26c0,0,-72,0,-130,-26c0,0,-58,-27,-99,-76c0,0,-41,-50,-63,-121c0,0,-22,-71,-22,-161c0,0,0,-89,22,-161c0,0,22,-71,63,-120c0,0,41,-50,99,-76c0,0,58,-26,130,-26ZM507,-9c0,0,-101,0,-185,35c0,0,-83,37,-143,104c0,0,-60,66,-92,158c0,0,-33,92,-33,202c0,0,0,110,33,202c0,0,32,92,92,159c0,0,60,67,143,103c0,0,84,37,185,37c0,0,101,0,184,-37c0,0,83,-36,143,-103c0,0,59,-67,91,-159c0,0,33,-92,33,-202c0,0,0,-110,-33,-202c0,0,-32,-92,-91,-158C834,130,774,63,691,26C691,26,608,-9,507,-9Z"
id="f0_4"
transform="scale(0.001,-0.001)"/>

<path d="M142,-9c0,0,-29,0,-57,4C85,-5,57,-1,25,7c0,0,2,21,4,41c0,0,2,21,4,40c0,0,1,11,8,19c0,0,7,7,22,7c0,0,9,0,25,-5c0,0,15,-6,40,-6c0,0,67,0,103,55c0,0,35,55,35,178V980H401V339c0,0,0,-82,-16,-147c0,0,-16,-64,-49,-110c0,0,-33,-45,-82,-69C254,13,206,-9,142,-9Z"
id="f0_5"
transform="scale(0.001,-0.001)"/>

<path d="M108,0V980H681V870H245V548H596V442H245V110H682L681,0Z"
id="f0_6"
transform="scale(0.001,-0.001)"/>

<path d="M468,-9c0,0,-95,0,-172,35c0,0,-77,37,-132,103c0,0,-55,66,-85,158c0,0,-29,92,-29,203c0,0,0,111,31,203c0,0,32,93,88,159c0,0,57,66,136,103c0,0,79,36,175,36c0,0,94,0,166,-33c0,0,72,-34,126,-91L727,804c0,0,-4,-7,-11,-11c0,0,-7,-4,-17,-4c0,0,-13,0,-28,13c0,0,-15,13,-40,29c0,0,-25,16,-61,30c0,0,-37,13,-91,13c0,0,-64,0,-118,-26c0,0,-53,-26,-91,-76c0,0,-39,-49,-60,-120c0,0,-21,-72,-21,-162c0,0,0,-91,22,-163c0,0,22,-71,61,-120c0,0,39,-50,92,-76c0,0,52,-26,113,-26c0,0,37,0,66,5c0,0,30,6,55,16c0,0,25,11,47,28c0,0,22,17,44,40c0,0,11,10,23,10c0,0,10,0,19,-9l54,-58C785,137,732,67,654,28C654,28,577,-9,468,-9Z"
id="f0_7"
transform="scale(0.001,-0.001)"/>

<path d="M304,0V867H18V980H727V867H441V0Z"
id="f0_8"
transform="scale(0.001,-0.001)"/>

<path d="M103,0V980H658V870H239V530H595V420H239V0Z"
id="f0_a"
transform="scale(0.001,-0.001)"/>

<path d="M103,0V980H239V114H617V0Z"
id="f0_b"
transform="scale(0.001,-0.001)"/>

<path d="M442,110c0,0,70,0,127,25c0,0,57,26,97,75c0,0,40,49,62,120c0,0,22,71,22,160c0,0,0,90,-22,160c0,0,-22,71,-62,120c0,0,-40,49,-97,75c0,0,-57,26,-127,26H240V110ZM104,0V980H442c0,0,100,0,183,-35c0,0,82,-36,141,-100c0,0,58,-64,91,-155c0,0,32,-90,32,-200c0,0,0,-110,-32,-201c0,0,-33,-90,-91,-154C766,135,707,70,625,35C625,35,542,0,442,0Z"
id="f0_c"
transform="scale(0.001,-0.001)"/>

<path d="M110,0V980h71c0,0,17,0,26,-4c0,0,9,-4,21,-19L760,224c0,0,-1,18,-2,35c0,0,-2,18,-2,33V980H876V0H807c0,0,-16,0,-26,5c0,0,-11,5,-22,19L227,755c0,0,1,-17,2,-33c0,0,1,-16,1,-30V0Z"
id="f0_d"
transform="scale(0.001,-0.001)"/>

<path d="M404,92c0,0,53,0,92,18c0,0,40,18,66,53c0,0,27,35,40,86c0,0,13,51,13,116c0,0,0,65,-13,115c0,0,-13,51,-40,86c0,0,-26,35,-66,54c0,0,-39,19,-92,19c0,0,-54,0,-94,-19c0,0,-40,-19,-66,-54c0,0,-27,-35,-40,-86c0,0,-13,-50,-13,-115c0,0,0,-65,13,-116c0,0,13,-51,40,-86c0,0,26,-35,66,-53c0,0,40,-18,94,-18ZM404,-9c0,0,-80,0,-145,25c0,0,-64,27,-109,75c0,0,-46,49,-70,119c0,0,-24,69,-24,156c0,0,0,85,24,155c0,0,24,69,70,118c0,0,45,49,109,75c0,0,65,27,145,27c0,0,79,0,144,-27c0,0,64,-26,108,-75c0,0,45,-49,69,-118c0,0,25,-70,25,-155c0,0,0,-87,-25,-156c0,0,-24,-70,-69,-119C656,91,612,43,548,16C548,16,483,-9,404,-9Z"
id="f0_e"
transform="scale(0.001,-0.001)"/>

<path d="M311,-10c0,0,-84,0,-130,47c0,0,-45,49,-45,139V621H52c0,0,-11,0,-19,7c0,0,-8,8,-8,22v52l115,15l31,224c0,0,1,12,9,18c0,0,8,7,20,7h67V716H468V621H267V185c0,0,0,-45,21,-67c0,0,20,-23,53,-23c0,0,19,0,33,6c0,0,14,5,24,12c0,0,9,6,16,12c0,0,7,5,13,5c0,0,7,0,11,-3c0,0,4,-3,8,-10L485,54C485,54,451,23,406,6c0,0,-46,-16,-95,-16Z"
id="f0_f"
transform="scale(0.001,-0.001)"/>

<path d="M587,445c0,0,0,44,-13,81c0,0,-12,36,-36,63c0,0,-24,26,-59,41c0,0,-34,15,-78,15c0,0,-91,0,-145,-53c0,0,-53,-54,-67,-147ZM406,-9c0,0,-76,0,-140,24c0,0,-65,25,-111,75c0,0,-47,50,-73,122c0,0,-26,73,-26,168c0,0,0,76,23,142c0,0,24,66,68,115c0,0,45,49,108,76c0,0,64,28,144,28c0,0,66,0,122,-22c0,0,56,-22,97,-63c0,0,41,-42,64,-102c0,0,23,-61,23,-139c0,0,0,-31,-7,-41c0,0,-6,-10,-24,-10H186c0,0,1,-69,18,-120c0,0,18,-51,48,-84c0,0,30,-34,72,-51c0,0,42,-16,93,-16c0,0,48,0,83,10c0,0,35,11,60,25c0,0,25,13,42,24c0,0,17,11,30,11c0,0,8,0,14,-4c0,0,6,-3,10,-9l38,-48c0,0,-25,-29,-58,-50c0,0,-33,-21,-71,-35C565,17,527,3,486,-3c0,0,-41,-6,-80,-6Z"
id="f0_g"
transform="scale(0.001,-0.001)"/>

<path d="M404,91c0,0,101,0,155,72c0,0,53,73,53,216c0,0,0,133,-47,195c0,0,-48,63,-136,63c0,0,-60,0,-106,-28c0,0,-46,-29,-84,-81V176c0,0,34,-47,75,-66c0,0,41,-19,90,-19ZM437,-9c0,0,-71,0,-120,26c0,0,-48,27,-85,76L225,28C225,28,222,0,192,0H107V1061H239V626c0,0,44,53,102,84c0,0,57,31,132,31c0,0,63,0,114,-25c0,0,51,-24,87,-71c0,0,35,-46,54,-112c0,0,19,-66,19,-150c0,0,0,-88,-21,-161c0,0,-22,-72,-62,-124c0,0,-40,-52,-98,-80C566,18,509,-9,437,-9Z"
id="f0_h"
transform="scale(0.001,-0.001)"/>

<path d="M95,0V1061H227V437h30c0,0,14,0,22,4c0,0,9,4,19,16L492,704c0,0,10,12,21,19c0,0,11,7,29,7H661L432,442c0,0,-11,-11,-21,-20c0,0,-10,-9,-22,-17c0,0,12,-8,22,-20c0,0,10,-11,21,-24L676,0H558c0,0,-16,0,-28,6c0,0,-12,5,-21,19L310,324c0,0,-11,15,-20,20c0,0,-10,4,-30,4H227V0Z"
id="f0_i"
transform="scale(0.001,-0.001)"/>

<path d="M190,0V95H394V757c0,0,0,29,2,61L230,671c0,0,-13,-11,-28,-11c-2,0,-5,1,-7,1c0,0,-17,5,-23,15l-40,54L418,983H519V95H706V0Z"
id="f0_j"
transform="scale(0.001,-0.001)"/>

<path d="M69,0V43c0,0,0,12,5,27c0,0,5,14,18,26L395,410c0,0,39,39,70,76c0,0,31,36,53,73c0,0,21,37,33,75c0,0,12,38,12,81c0,0,0,42,-13,74c0,0,-13,32,-35,54c0,0,-23,21,-53,31c0,0,-31,11,-67,11c0,0,-35,0,-65,-11c0,0,-29,-11,-52,-30c0,0,-24,-19,-40,-45c0,0,-16,-27,-24,-58c0,0,-6,-26,-20,-33c0,0,-10,-6,-27,-6c-4,0,-9,1,-14,1L88,714c0,0,9,68,36,120c0,0,27,51,68,87c0,0,41,35,95,53c0,0,53,17,115,17c0,0,62,0,115,-18c0,0,53,-19,92,-54c0,0,39,-35,61,-86c0,0,22,-50,22,-115c0,0,0,-55,-17,-101c0,0,-16,-47,-43,-90c0,0,-27,-42,-63,-83c0,0,-36,-40,-75,-81L242,101c0,0,29,8,58,12c0,0,28,5,54,5H665c0,0,21,0,32,-12c0,0,12,-11,12,-31V0Z"
id="f0_k"
transform="scale(0.001,-0.001)"/>

<path d="M8,0L304,503L20,980H155c0,0,15,0,22,-5c0,0,7,-5,12,-13L405,580c0,0,5,12,12,22L615,959c0,0,6,10,13,16c0,0,8,5,18,5H776L491,510L785,0H650c0,0,-15,0,-23,8c0,0,-9,8,-15,17L391,425c0,0,-4,-11,-9,-18L170,25c0,0,-6,-9,-14,-17c0,0,-8,-8,-21,-8Z"
id="f0_n"
transform="scale(0.001,-0.001)"/>

<path d="M490,-10c0,0,-89,0,-161,29c0,0,-71,30,-121,83c0,0,-50,53,-77,126c0,0,-27,72,-27,157V980H240V386c0,0,0,-61,17,-113c0,0,17,-51,49,-88c0,0,32,-37,79,-57c0,0,46,-21,105,-21c0,0,59,0,106,21c0,0,46,20,78,57c0,0,32,37,49,88c0,0,17,51,17,112V980H876V385c0,0,0,-85,-27,-157c0,0,-27,-73,-77,-126c0,0,-49,-53,-121,-83c0,0,-71,-29,-161,-29Z"
id="f0_o"
transform="scale(0.001,-0.001)"/>

<path d="M125,0V980H260V0Z"
id="f0_p"
transform="scale(0.001,-0.001)"/>

<path d="M191,-11c0,0,-19,0,-35,8c0,0,-16,6,-29,18c0,0,-12,13,-20,29c0,0,-7,17,-7,36c0,0,0,19,7,36c0,0,8,17,20,29c0,0,13,13,29,21c0,0,16,7,35,7c0,0,19,0,35,-7c0,0,17,-8,30,-21c0,0,13,-12,21,-29c0,0,7,-17,7,-36c0,0,0,-19,-7,-36c0,0,-8,-16,-21,-29C256,15,243,3,226,-3c0,0,-16,-8,-35,-8Z"
id="f0_q"
transform="scale(0.001,-0.001)"/>

<path d="M556,-9c0,0,-114,0,-207,35c0,0,-92,37,-157,103c0,0,-64,66,-99,158c0,0,-36,92,-36,203c0,0,0,112,34,204c0,0,34,92,97,158c0,0,63,66,153,103c0,0,89,36,201,36c0,0,56,0,104,-8c0,0,49,-9,90,-25c0,0,41,-16,75,-39c0,0,35,-23,65,-51L838,806c0,0,-9,-15,-24,-18c0,0,-3,-1,-7,-1c-6,0,-15,1,-25,7c0,0,-17,10,-38,24c0,0,-20,14,-49,26c0,0,-28,12,-67,21c0,0,-39,9,-92,9c0,0,-77,0,-140,-27c0,0,-63,-26,-108,-76c0,0,-44,-50,-68,-122c0,0,-24,-71,-24,-159c0,0,0,-92,25,-164c0,0,25,-73,72,-123c0,0,46,-51,112,-77c0,0,66,-27,147,-27c0,0,63,0,112,15c0,0,49,14,97,40V369H620c0,0,-14,0,-22,8c0,0,-8,7,-8,18v77H884V95C884,95,812,42,731,16C731,16,650,-9,556,-9Z"
id="f0_s"
transform="scale(0.001,-0.001)"/>

<path d="M104,0V730h79c0,0,14,0,23,-7c0,0,9,-6,10,-20l12,-78c0,0,47,52,105,84c0,0,58,32,134,32c0,0,60,0,105,-20c0,0,45,-20,76,-56c0,0,30,-36,46,-87c0,0,15,-51,15,-113V0H578V465c0,0,0,81,-37,127c0,0,-37,45,-112,45c0,0,-56,0,-104,-26c0,0,-49,-27,-89,-74V0Z"
id="f0_t"
transform="scale(0.001,-0.001)"/>

<path d="M404,91c0,0,100,0,154,72c0,0,54,73,54,207c0,0,0,71,-12,122c0,0,-12,50,-36,83c0,0,-23,32,-57,47c0,0,-34,15,-77,15c0,0,-61,0,-108,-28c0,0,-47,-29,-86,-81V176c0,0,35,-47,76,-66c0,0,42,-19,92,-19ZM105,-245V730h79c0,0,14,0,23,-7c0,0,9,-6,10,-20l13,-85c0,0,46,56,106,90c0,0,59,34,137,34c0,0,63,0,113,-24c0,0,51,-24,87,-71c0,0,36,-47,55,-117c0,0,19,-69,19,-160c0,0,0,-81,-21,-150c0,0,-22,-70,-62,-121c0,0,-41,-51,-99,-80C565,19,507,-9,433,-9c0,0,-66,0,-113,21c0,0,-47,22,-84,63V-245Z"
id="f0_u"
transform="scale(0.001,-0.001)"/>

<path d="M307,81c0,0,32,0,60,6c0,0,28,7,52,19c0,0,25,13,47,31c0,0,22,18,44,41V328c0,0,-88,-3,-149,-14c0,0,-61,-11,-100,-29c0,0,-38,-18,-55,-42c0,0,-17,-24,-17,-54c0,0,0,-29,9,-49c0,0,9,-21,25,-34c0,0,16,-13,37,-19c0,0,22,-6,47,-6ZM267,-10c0,0,-42,0,-79,10c0,0,-37,12,-65,36c0,0,-28,24,-44,61c0,0,-16,36,-16,85c0,0,0,43,23,83c0,0,24,40,77,71c0,0,53,32,138,52c0,0,85,19,209,22v56c0,0,0,85,-37,128c0,0,-36,43,-105,43c0,0,-46,0,-78,-12c0,0,-32,-12,-55,-26c0,0,-23,-14,-40,-26c0,0,-17,-12,-34,-12c0,0,-13,0,-23,7c0,0,-10,6,-16,17L98,627c0,0,61,58,131,87c0,0,69,28,154,28c0,0,62,0,109,-20c0,0,48,-19,80,-56c0,0,32,-36,49,-87c0,0,17,-51,17,-113V0H580c0,0,-20,0,-30,6c0,0,-11,6,-14,25L519,98c0,0,-28,-26,-55,-46c0,0,-28,-21,-57,-35C407,17,377,3,342,-3c0,0,-34,-7,-75,-7Z"
id="f0_v"
transform="scale(0.001,-0.001)"/>

<path d="M107,0V1061H238V633c0,0,45,50,101,79c0,0,56,29,129,29c0,0,59,0,105,-20c0,0,45,-20,75,-56c0,0,31,-36,46,-87c0,0,15,-51,15,-113V0H578V465c0,0,0,81,-36,127c0,0,-37,45,-112,45c0,0,-56,0,-104,-27c0,0,-48,-27,-88,-74V0Z"
id="f0_w"
transform="scale(0.001,-0.001)"/>

<path d="M127,0V620L53,630c0,0,-16,1,-25,9c0,0,-10,9,-10,23v54H127v70c0,0,0,62,17,111c0,0,16,49,48,82c0,0,31,33,76,51c0,0,45,17,101,17c0,0,23,0,45,-3c0,0,22,-4,42,-11l-4,-65c0,0,-1,-18,-18,-19c0,0,-16,-2,-44,-2c0,0,-31,0,-56,-9c0,0,-25,-8,-43,-27c0,0,-18,-20,-28,-51c0,0,-9,-32,-9,-78V716H450V621H258V0Z"
id="f0_x"
transform="scale(0.001,-0.001)"/>

<path d="M98,0V730h75c0,0,21,0,30,-9c0,0,8,-8,10,-27l9,-108c0,0,33,73,82,114c0,0,50,42,119,42c0,0,23,0,43,-5c0,0,20,-4,37,-16L492,624c0,0,-2,-18,-21,-18c0,0,-10,0,-29,4c0,0,-19,4,-42,4c0,0,-34,0,-59,-10c0,0,-26,-10,-47,-30c0,0,-20,-20,-36,-48c0,0,-16,-28,-29,-65V0Z"
id="f0_y"
transform="scale(0.001,-0.001)"/>

<path d="M110,0V730h77c0,0,15,0,24,-7c0,0,8,-6,10,-20l11,-75c0,0,21,25,44,45c0,0,22,21,49,36c0,0,26,15,55,24c0,0,30,8,64,8c0,0,75,0,123,-41c0,0,47,-41,67,-111c0,0,16,41,41,69c0,0,26,28,58,47c0,0,31,19,67,27c0,0,36,9,73,9c0,0,119,0,184,-72c0,0,66,-71,66,-204V0H991V465c0,0,0,85,-38,128c0,0,-39,44,-112,44c0,0,-32,0,-61,-11c0,0,-30,-11,-52,-33c0,0,-22,-22,-35,-54c0,0,-13,-32,-13,-74V0H549V465c0,0,0,87,-36,130c0,0,-36,42,-106,42c0,0,-48,0,-90,-25c0,0,-42,-25,-76,-69V0Z"
id="f0_z"
transform="scale(0.001,-0.001)"/>

<path d="M371,95c0,0,62,0,108,28c0,0,45,29,85,81V557c0,0,-35,47,-76,66c0,0,-41,19,-91,19c0,0,-99,0,-153,-73c0,0,-54,-72,-54,-206c0,0,0,-71,13,-122c0,0,12,-51,35,-83c0,0,23,-33,57,-48c0,0,33,-15,76,-15ZM328,-9c0,0,-62,0,-112,23c0,0,-50,24,-86,71c0,0,-36,47,-55,117c0,0,-20,70,-20,161c0,0,0,80,21,150c0,0,22,70,62,120c0,0,40,51,98,80c0,0,58,29,131,29c0,0,66,0,113,-22c0,0,47,-22,84,-63v404H695V0H617c0,0,-14,0,-23,6c0,0,-9,7,-11,21l-13,87c0,0,-46,-56,-105,-90C465,24,406,-9,328,-9Z"
id="f0_10"
transform="scale(0.001,-0.001)"/>

<path d="M284,-10c0,0,-72,0,-131,23C153,13,93,38,52,78l31,49c0,0,6,10,14,15c0,0,8,5,21,5c0,0,13,0,27,-10c0,0,13,-10,32,-22c0,0,19,-13,46,-23c0,0,27,-10,67,-10c0,0,35,0,59,10c0,0,25,9,42,25c0,0,16,17,25,38c0,0,8,22,8,46c0,0,0,30,-16,49c0,0,-15,20,-39,34c0,0,-25,14,-57,24c0,0,-32,11,-65,22c0,0,-33,12,-65,26c0,0,-31,15,-56,38c0,0,-25,22,-40,55c0,0,-15,33,-15,80c0,0,0,42,16,81c0,0,17,38,48,67c0,0,31,29,78,47c0,0,46,17,106,17c0,0,67,0,123,-23c0,0,55,-22,94,-62L507,609c0,0,-9,-17,-27,-17c0,0,-12,0,-25,9c0,0,-13,8,-31,17c0,0,-18,9,-43,18c0,0,-25,8,-59,8c0,0,-30,0,-53,-8c0,0,-23,-9,-39,-23c0,0,-17,-14,-26,-33c0,0,-9,-19,-9,-41c0,0,0,-28,15,-47c0,0,15,-18,40,-32c0,0,25,-13,56,-24c0,0,32,-11,65,-22c0,0,33,-11,64,-26c0,0,32,-15,57,-37c0,0,24,-21,39,-52c0,0,15,-31,15,-75c0,0,0,-51,-17,-94c0,0,-17,-43,-50,-74C479,56,445,25,396,7c0,0,-48,-17,-112,-17Z"
id="f0_11"
transform="scale(0.001,-0.001)"/>

<path d="M357,-9c0,0,-64,0,-120,24c0,0,-56,25,-97,73c0,0,-42,49,-65,118c0,0,-24,70,-24,160c0,0,0,81,22,150c0,0,22,69,63,119c0,0,42,50,102,78c0,0,61,28,140,28c0,0,75,0,131,-25c0,0,56,-25,99,-70L574,598c0,0,-6,-8,-12,-12c0,0,-5,-4,-16,-4c0,0,-11,0,-23,9c0,0,-12,9,-30,20c0,0,-18,10,-44,19c0,0,-25,9,-63,9c0,0,-49,0,-86,-19c0,0,-38,-19,-63,-54c0,0,-25,-36,-38,-86c0,0,-13,-51,-13,-114c0,0,0,-66,14,-117c0,0,13,-51,39,-86c0,0,25,-35,61,-54c0,0,36,-18,80,-18c0,0,44,0,71,11c0,0,28,11,47,25c0,0,18,13,31,24c0,0,12,12,25,12c0,0,15,0,24,-13l38,-48c0,0,-24,-29,-53,-50c0,0,-29,-21,-62,-35C501,17,467,3,431,-3c0,0,-36,-6,-74,-6Z"
id="f0_12"
transform="scale(0.001,-0.001)"/>

<path d="M336,-10c0,0,-60,0,-105,19c0,0,-45,19,-76,56c0,0,-30,36,-46,87c0,0,-16,51,-16,113V730H225V265c0,0,0,-82,36,-127c0,0,37,-45,113,-45c0,0,56,0,104,26c0,0,48,26,89,73V730H698V0H619c0,0,-13,0,-22,6c0,0,-9,7,-11,21l-12,77c0,0,-47,-52,-104,-83c0,0,-58,-31,-134,-31Z"
id="f0_13"
transform="scale(0.001,-0.001)"/>

<path d="M110,0V1061H241V0Z"
id="f0_14"
transform="scale(0.001,-0.001)"/>

<path d="M43,-261c0,0,-24,0,-43,4c0,0,-20,3,-40,10l7,70c0,0,1,7,4,11c0,0,2,3,8,4c0,0,4,0,10,0c1,0,3,0,5,0c0,0,8,0,22,0c0,0,57,0,82,26c0,0,24,26,24,84V730H254V-52c0,0,0,-44,-12,-82c0,0,-12,-38,-38,-66c0,0,-26,-28,-66,-44c0,0,-40,-17,-95,-17ZM187,866c0,0,-18,0,-35,8c0,0,-16,7,-29,19c0,0,-12,13,-19,29c0,0,-8,17,-8,36c0,0,0,19,8,36c0,0,7,17,19,29c0,0,13,13,29,21c0,0,17,7,35,7c0,0,19,0,36,-7c0,0,16,-8,30,-21c0,0,13,-12,20,-29c0,0,7,-17,7,-36c0,0,0,-19,-7,-36c0,0,-7,-16,-20,-29c0,0,-14,-12,-30,-19c0,0,-17,-8,-36,-8Z"
id="f0_15"
transform="scale(0.001,-0.001)"/>

<path d="M396,-9c0,0,-76,0,-130,18c0,0,-53,19,-91,53c0,0,-38,34,-63,80c0,0,-25,47,-41,102l54,23c0,0,14,6,31,6c3,0,7,0,10,-1c0,0,20,-3,29,-22c0,0,9,-19,22,-46c0,0,13,-26,35,-51c0,0,23,-24,57,-41c0,0,34,-17,86,-17c0,0,49,0,85,17c0,0,37,17,62,43c0,0,24,26,37,59c0,0,12,33,12,64c0,0,0,39,-10,72c0,0,-10,33,-36,57c0,0,-27,23,-75,37c0,0,-47,13,-122,13v91c0,0,62,0,104,13c0,0,43,13,69,36c0,0,27,22,39,53c0,0,12,32,12,69c0,0,0,42,-12,73c0,0,-12,31,-34,52c0,0,-22,21,-53,31c0,0,-30,10,-66,10c0,0,-36,0,-65,-11c0,0,-29,-11,-53,-30c0,0,-23,-19,-39,-45c0,0,-16,-27,-24,-58c0,0,-6,-26,-20,-33c0,0,-10,-6,-27,-6c-5,0,-9,1,-14,1L99,714c0,0,10,68,37,120c0,0,27,51,68,87c0,0,41,35,95,53c0,0,53,17,115,17c0,0,62,0,113,-17c0,0,52,-18,89,-51c0,0,37,-33,58,-79c0,0,21,-47,21,-103c0,0,0,-47,-12,-84c0,0,-12,-36,-33,-64c0,0,-22,-28,-52,-47c0,0,-31,-19,-69,-31c0,0,93,-25,140,-84c0,0,47,-60,47,-149c0,0,0,-68,-25,-122c0,0,-26,-54,-69,-92C622,68,578,30,520,10C520,10,462,-9,396,-9Z"
id="f0_17"
transform="scale(0.001,-0.001)"/>

<path d="M110,0V730H241V0Zm63,866c0,0,-19,0,-35,8c0,0,-16,7,-29,19c0,0,-12,13,-19,29c0,0,-8,17,-8,36c0,0,0,19,8,36c0,0,7,17,19,29c0,0,13,13,29,21c0,0,16,7,35,7c0,0,19,0,35,-7c0,0,17,-8,30,-21c0,0,13,-12,21,-29c0,0,7,-17,7,-36c0,0,0,-19,-7,-36c0,0,-8,-16,-21,-29c0,0,-13,-12,-29,-19c0,0,-17,-8,-36,-8Z"
id="f0_19"
transform="scale(0.001,-0.001)"/>

<path d="M162,-245L287,43L8,730H122c0,0,17,0,26,-9c0,0,9,-8,13,-18L331,246c0,0,6,-15,12,-31c0,0,5,-16,9,-31c0,0,5,16,10,32c0,0,6,16,12,32L539,703c0,0,4,11,15,19c0,0,10,8,23,8H681L305,-214c0,0,-6,-15,-16,-23c0,0,-10,-8,-29,-8Z"
id="f0_1b"
transform="scale(0.001,-0.001)"/>

<path d="M17,0L244,374L27,730H152c0,0,15,0,22,-6c0,0,7,-5,13,-14L339,445c0,0,3,9,7,16c0,0,3,8,9,16L483,707c0,0,6,11,14,17c0,0,7,6,18,6H635L417,381L645,0H518c0,0,-14,0,-24,9c0,0,-9,8,-15,18L325,303c0,0,-6,-17,-14,-29L172,27c0,0,-6,-11,-15,-19c0,0,-9,-8,-23,-8Z"
id="f0_1c"
transform="scale(0.001,-0.001)"/>

<path d="M310,-211c0,0,-54,83,-92,165c0,0,-37,80,-61,162c0,0,-23,82,-34,166c0,0,-11,84,-11,171c0,0,0,87,11,171c0,0,11,83,34,165c0,0,24,82,61,164c0,0,38,81,92,164l58,-35c0,0,11,-8,17,-20c0,0,6,-12,-6,-34c0,0,-75,-131,-114,-276c0,0,-39,-146,-39,-299c0,0,0,-155,39,-300c0,0,39,-145,114,-275c0,0,12,-22,6,-34c0,0,-6,-12,-17,-19l-58,-36Z"
id="f0_1d"
transform="scale(0.001,-0.001)"/>

<path d="M239,0L54,730H160c0,0,15,0,23,-9c0,0,9,-8,11,-18L296,236c0,0,6,-27,9,-54c0,0,4,-26,5,-52c0,0,9,26,19,52c0,0,10,26,22,53L569,703c0,0,6,11,17,19c0,0,10,8,23,8H711L348,0Z"
id="f1_2"
transform="scale(0.001,-0.001)"/>

<path d="M67,0l88,730H284L196,0ZM242,866c0,0,-17,0,-33,8c0,0,-16,7,-28,20c0,0,-12,12,-20,29c0,0,-7,16,-7,35c0,0,0,18,7,36c0,0,8,17,20,29c0,0,12,13,28,21c0,0,16,7,33,7c0,0,18,0,34,-7c0,0,16,-8,29,-21c0,0,13,-12,20,-29c0,0,8,-17,8,-36c0,0,0,-19,-8,-35c0,0,-8,-17,-21,-29c0,0,-12,-13,-29,-20c0,0,-16,-8,-33,-8Z"
id="f1_3"
transform="scale(0.001,-0.001)"/>

<path d="M293,98c0,0,39,0,76,22c0,0,38,22,71,62c0,0,33,40,62,93c0,0,28,54,50,118l30,246c0,0,-17,3,-35,4c0,0,-18,2,-35,2c0,0,-71,0,-134,-31c0,0,-62,-30,-109,-81c0,0,-47,-51,-75,-118c0,0,-27,-67,-27,-141c0,0,0,-176,126,-176ZM245,-9c0,0,-48,0,-86,16c0,0,-39,17,-66,50c0,0,-27,33,-42,82c0,0,-14,49,-14,112c0,0,0,65,17,126c0,0,18,61,49,115c0,0,32,54,77,100c0,0,45,45,99,78c0,0,54,33,118,51c0,0,63,18,132,18c0,0,49,0,97,-7c0,0,48,-7,92,-26L633,0H564c0,0,-26,0,-35,13c0,0,-9,13,-8,32l14,155c0,0,-28,-48,-61,-87c0,0,-32,-38,-69,-66C405,47,369,19,329,4C329,4,288,-9,245,-9Z"
id="f1_4"
transform="scale(0.001,-0.001)"/>

<path d="M154,-211l-59,36c0,0,-5,3,-10,8c0,0,-4,5,-7,11c0,0,-2,6,-1,15c0,0,1,8,7,19c0,0,75,130,114,275c0,0,39,145,39,300c0,0,0,153,-39,299c0,0,-39,145,-114,276c0,0,-6,11,-7,19c0,0,-1,9,1,15c0,0,3,7,7,11c0,0,5,5,10,9l59,35c0,0,53,-83,91,-164c0,0,38,-82,61,-164c0,0,24,-82,35,-165c0,0,10,-84,10,-171c0,0,0,-87,-10,-171c0,0,-11,-84,-35,-166c0,0,-23,-82,-61,-162c0,0,-38,-82,-91,-165Z"
id="f0_1e"
transform="scale(0.001,-0.001)"/>

<path d="M498,354V754c0,0,0,36,4,79L160,354ZM498,0V257H76c0,0,-15,0,-25,7c0,0,-9,8,-12,21L26,348L490,981H607V354H749V283c0,0,0,-11,-7,-19c0,0,-7,-7,-21,-7H607V0Z"
id="f0_1f"
transform="scale(0.001,-0.001)"/>

<path d="M143,-194l-22,20c0,0,-10,9,-10,21c0,0,0,9,11,20c0,0,6,7,17,21c0,0,12,13,23,30c0,0,12,17,22,38c0,0,9,21,14,44h-9c0,0,-38,0,-61,25c0,0,-24,26,-24,65c0,0,0,16,7,31c0,0,6,15,17,26c0,0,12,11,28,18c0,0,16,7,35,7c0,0,22,0,39,-9c0,0,17,-8,28,-22c0,0,11,-13,17,-32c0,0,5,-19,5,-41c0,0,0,-32,-9,-67c0,0,-9,-34,-27,-69c0,0,-17,-34,-43,-66c0,0,-25,-33,-58,-60Z"
id="f0_1h"
transform="scale(0.001,-0.001)"/>

<path d="M338,-9c0,0,-43,0,-81,8c0,0,-39,8,-73,22c0,0,-35,14,-64,33c0,0,-28,18,-51,39l38,53c0,0,14,18,34,18c0,0,13,0,30,-10c0,0,17,-11,41,-24c0,0,24,-13,56,-23c0,0,32,-11,77,-11c0,0,49,0,88,17c0,0,40,16,68,46c0,0,27,30,42,72c0,0,15,42,15,94c0,0,0,46,-13,82c0,0,-13,37,-39,63c0,0,-26,26,-64,40c0,0,-39,14,-91,14c0,0,-72,0,-153,-26l-78,23l78,459H654V926c0,0,0,-26,-17,-43c0,0,-16,-18,-56,-18H285L242,612c0,0,38,8,71,12c0,0,33,3,64,3c0,0,75,0,132,-22c0,0,58,-23,97,-63c0,0,39,-39,58,-93c0,0,20,-54,20,-118c0,0,0,-78,-26,-141c0,0,-27,-63,-74,-108C584,82,538,37,474,13C474,13,411,-9,338,-9Z"
id="f0_1i"
transform="scale(0.001,-0.001)"/>

<path d="M245,0L16,730H119c0,0,15,0,26,-9c0,0,10,-8,13,-19L289,236c0,0,7,-25,12,-49c0,0,6,-24,9,-48c0,0,6,24,14,48c0,0,7,24,15,50L484,706c0,0,4,11,14,18c0,0,9,7,23,7h56c0,0,15,0,25,-7c0,0,9,-7,13,-18L756,237c0,0,9,-25,15,-50c0,0,7,-24,13,-48c0,0,8,48,23,98L941,703c0,0,3,12,13,19c0,0,10,8,24,8h98L847,0H743c0,0,-19,0,-26,25L564,516c0,0,-6,17,-10,34c0,0,-4,17,-8,34c0,0,-4,-17,-7,-34c0,0,-4,-17,-10,-35L374,25C374,25,366,0,345,0Z"
id="f0_1k"
transform="scale(0.001,-0.001)"/>

<path d="M610,364L471,759c0,0,-7,18,-14,41c0,0,-8,24,-15,52c0,0,-7,-28,-15,-52c0,0,-7,-24,-14,-42L275,364ZM6,0L374,980H512L879,0H774c0,0,-18,0,-29,9c0,0,-11,9,-17,22L645,267H240L157,32c0,0,-4,-13,-16,-22C141,10,128,0,111,0Z"
id="f0_1l"
transform="scale(0.001,-0.001)"/>

<path d="M104,0V980H241V544H711V980H847V0H711V445H241V0Z"
id="f0_1m"
transform="scale(0.001,-0.001)"/>

<path d="M125,0V980H225c0,0,17,0,28,-3c0,0,10,-3,19,-20L623,357c0,0,10,-17,17,-35c0,0,8,-18,16,-36c0,0,7,19,15,37c0,0,8,18,17,34l346,601c0,0,9,16,19,19c0,0,11,3,29,3h100V0H1062V715c0,0,0,15,1,34c0,0,1,18,2,37L715,171c0,0,-17,-31,-49,-31H647c0,0,-32,0,-49,31L239,785c0,0,5,-38,5,-70V0Z"
id="f0_1n"
transform="scale(0.001,-0.001)"/>

<path d="M436,107c0,0,52,0,89,13c0,0,37,14,60,37c0,0,24,23,35,55c0,0,10,33,10,71c0,0,0,75,-47,119c0,0,-47,44,-147,44H243V107ZM401,542c0,0,50,0,88,12c0,0,37,12,62,34c0,0,24,21,36,52c0,0,13,31,13,68c0,0,0,86,-47,126c0,0,-46,40,-146,40H243V542ZM107,0V980H407c0,0,86,0,148,-17c0,0,63,-18,103,-51c0,0,39,-33,58,-81c0,0,19,-47,19,-107c0,0,0,-35,-11,-69c0,0,-11,-34,-32,-62c0,0,-22,-28,-55,-51c0,0,-33,-24,-78,-38c0,0,103,-20,155,-76c0,0,51,-57,51,-148c0,0,0,-63,-21,-114c0,0,-22,-52,-64,-89C680,77,639,40,578,20C578,20,517,0,439,0Z"
id="f0_1o"
transform="scale(0.001,-0.001)"/>

<path d="M93,0V980H228V552h39c0,0,22,0,36,7c0,0,14,6,24,21L580,949c0,0,14,17,28,24c0,0,15,7,37,7H761L463,559c0,0,-24,-32,-50,-45c0,0,34,-12,61,-49L783,0H663c0,0,-24,0,-36,8c0,0,-12,8,-22,20L345,416c0,0,-12,17,-25,25c0,0,-14,7,-42,7H228V0Z"
id="f0_1p"
transform="scale(0.001,-0.001)"/>

<path d="M336,-9c0,0,-91,0,-166,33c0,0,-76,35,-129,94l40,64c0,0,5,8,13,13c0,0,7,5,18,5c0,0,14,0,32,-15c0,0,17,-16,43,-34c0,0,26,-18,63,-34c0,0,37,-15,89,-15c0,0,43,0,77,13c0,0,33,13,57,36c0,0,23,23,35,55c0,0,13,33,13,72c0,0,0,44,-19,73c0,0,-19,28,-50,47c0,0,-31,19,-71,32c0,0,-39,13,-80,27c0,0,-41,14,-81,33c0,0,-39,18,-70,48c0,0,-31,30,-50,74c0,0,-19,44,-19,109c0,0,0,52,19,101c0,0,19,49,56,86c0,0,37,38,91,61c0,0,54,22,124,22c0,0,79,0,144,-26c0,0,65,-26,113,-76L595,826c0,0,-12,-21,-31,-21c0,0,-11,0,-27,11c0,0,-15,12,-37,26c0,0,-22,14,-53,25c0,0,-31,12,-74,12c0,0,-41,0,-72,-12c0,0,-31,-11,-51,-32c0,0,-21,-20,-31,-48c0,0,-11,-27,-11,-58c0,0,0,-41,19,-68c0,0,19,-27,50,-46c0,0,31,-19,71,-33c0,0,39,-14,80,-29c0,0,41,-15,81,-34c0,0,39,-19,70,-48c0,0,31,-29,50,-70c0,0,19,-42,19,-103c0,0,0,-65,-21,-121c0,0,-21,-56,-60,-98c0,0,-40,-42,-99,-66C468,13,410,-9,336,-9Z"
id="f0_1q"
transform="scale(0.001,-0.001)"/>


</defs>
<path d="M0,0
L0,825
L1466,825
L1466,0 Z "
fill="#FFFFFF" stroke="none"/>
<g clip-path="url(#c_1)">
<g clip-path="url(#c0_1)">
<path fill-rule="evenodd" d="M0,0H1466.6V825H0V0Z" class="g0_1"/>
<path fill-rule="evenodd" d="M0,0H1466.7V825H0V0Z" class="g0_1"/>
</g>
<g clip-path="url(#c1_1)">
<path fill-rule="evenodd" d="M931.3,48.4h313.1V323.5H931.3V48.4Z" class="g1_1"/>
<path fill-rule="evenodd" d="M931.3,87.7h313.1V323.4H931.3V87.7Z" class="g2_1"/>
<path fill-rule="evenodd" d="M931.3,127h313.1V323.4H931.3V127Z" class="g3_1"/>
<path fill-rule="evenodd" d="M931.3,166.3h313.1V323.4H931.3V166.3Z" class="g4_1"/>
<path fill-rule="evenodd" d="M931.3,205.6h313.1V323.4H931.3V205.6Z" class="g5_1"/>
<path fill-rule="evenodd" d="M931.3,244.9h313.1v78.5H931.3V244.9Z" class="g6_1"/>
<path fill-rule="evenodd" d="M931.3,284.1h313.1v39.4H931.3V284.1Z" class="g7_1"/>
</g>
<path d="M931.3,94.2c0,-8,2.1,-15.9,6.2,-22.9c4,-6.9,9.8,-12.7,16.7,-16.8c7,-4,14.9,-6.1,23,-6.1h221.3c8.1,0,16,2.1,22.9,6.2c7,4,12.8,9.8,16.8,16.7c4.1,7,6.2,14.9,6.2,23V277.6c0,8.1,-2.1,15.9,-6.2,22.9c-4,7,-9.8,12.8,-16.7,16.8c-7,4,-14.9,6.2,-23,6.2H977.1c-8,0,-15.9,-2.2,-22.9,-6.2c-6.9,-4,-12.7,-9.8,-16.8,-16.7c-4,-7,-6.1,-14.9,-6.1,-23V94.2Z" class="g8_1"/>
<g fill="#000000"  clip-path="url(#c0_1)">
<use xlink:href="#f0_2" transform="matrix(18,0,0,18,992.8,94.7)"/>
<use xlink:href="#f0_3" transform="matrix(18,0,0,18,1007,94.7)"/>
<use xlink:href="#f0_4" transform="matrix(18,0,0,18,1021.6,94.7)"/>
<use xlink:href="#f0_5" transform="matrix(18,0,0,18,1039.3,94.7)"/>
<use xlink:href="#f0_6" transform="matrix(18,0,0,18,1048,94.7)"/>
<use xlink:href="#f0_7" transform="matrix(18,0,0,18,1061.2,94.7)"/>
<use xlink:href="#f0_8" transform="matrix(18,0,0,18,1076,94.7)"/>
<use xlink:href="#f0_a" transform="matrix(18,0,0,18,1095.5,94.7)"/>
<use xlink:href="#f0_4" transform="matrix(18,0,0,18,1108.1,94.7)"/>
<use xlink:href="#f0_b" transform="matrix(18,0,0,18,1126.2,94.7)"/>
<use xlink:href="#f0_c" transform="matrix(18,0,0,18,1137.7,94.7)"/>
<use xlink:href="#f0_6" transform="matrix(18,0,0,18,1154.6,94.7)"/>
<use xlink:href="#f0_3" transform="matrix(18,0,0,18,1167.9,94.7)"/>
</g>
<text clip-path="url(#c0_1)" x="992.8" y="94.7" dx="0,0,-.2,-.5,0,-.3,.1,0,-.1,-.1,0,-.1,0,-.1" class="s1_1">PROJECT FOLDER</text>
<path fill-rule="evenodd" d="M938.6,128.2c0,-2.2,.6,-4.3,1.7,-6.2c1.1,-2,2.7,-3.6,4.6,-4.6c1.9,-1.1,4.1,-1.7,6.3,-1.7h273.2c2.2,0,4.4,.6,6.3,1.7c1.9,1.1,3.5,2.7,4.5,4.6c1.1,1.9,1.7,4.1,1.7,6.3v50.2c0,2.2,-.5,4.3,-1.7,6.2c-1,2,-2.6,3.6,-4.5,4.6c-1.9,1.1,-4.1,1.7,-6.3,1.7H951.2c-2.3,0,-4.4,-.5,-6.3,-1.7c-1.9,-1,-3.5,-2.6,-4.6,-4.6c-1.1,-1.9,-1.7,-4,-1.7,-6.2V128.2Z" class="g9_1"/>
<path d="M938.6,128.2c0,-2.2,.6,-4.3,1.7,-6.2c1.1,-2,2.7,-3.6,4.6,-4.6c1.9,-1.1,4.1,-1.7,6.3,-1.7h273.2c2.2,0,4.4,.6,6.3,1.7c1.9,1.1,3.5,2.7,4.5,4.6c1.1,1.9,1.7,4.1,1.7,6.3v50.2c0,2.2,-.5,4.3,-1.7,6.2c-1,2,-2.6,3.6,-4.5,4.6c-1.9,1.1,-4.1,1.7,-6.3,1.7H951.2c-2.3,0,-4.4,-.5,-6.3,-1.7c-1.9,-1,-3.5,-2.6,-4.6,-4.6c-1.1,-1.9,-1.7,-4,-1.7,-6.2V128.2Z" class="ga_1"/>
<g fill="#FFFFFF"  clip-path="url(#c0_1)">
<use xlink:href="#f0_d" transform="matrix(18,0,0,18,1022.2,164.4)"/>
<use xlink:href="#f0_e" transform="matrix(18,0,0,18,1039.9,164.4)"/>
<use xlink:href="#f0_f" transform="matrix(18,0,0,18,1054.4,164.4)"/>
<use xlink:href="#f0_g" transform="matrix(18,0,0,18,1063.4,164.4)"/>
<use xlink:href="#f0_h" transform="matrix(18,0,0,18,1077.2,164.4)"/>
<use xlink:href="#f0_e" transform="matrix(18,0,0,18,1091.7,164.4)"/>
<use xlink:href="#f0_e" transform="matrix(18,0,0,18,1106.2,164.4)"/>
<use xlink:href="#f0_i" transform="matrix(18,0,0,18,1120.5,164.4)"/>
<use xlink:href="#f0_j" transform="matrix(18,0,0,18,1139.3,164.4)"/>
</g>
<text clip-path="url(#c0_1)" x="1022.2" y="164.4" dx="0,0,0,-.2,.1,.1,0,-.1,0,0" class="s1_1">Notebook 1</text>
<path fill-rule="evenodd" d="M938.6,223.5c0,-2.2,.6,-4.4,1.7,-6.3c1.1,-1.9,2.7,-3.5,4.6,-4.6c1.9,-1.1,4.1,-1.7,6.3,-1.7h273.2c2.2,0,4.4,.6,6.3,1.7c1.9,1.1,3.5,2.7,4.5,4.6c1.1,1.9,1.7,4.1,1.7,6.3v50.2c0,2.2,-.5,4.4,-1.7,6.3c-1,1.9,-2.6,3.5,-4.5,4.6c-1.9,1.1,-4.1,1.7,-6.3,1.7H951.2c-2.3,0,-4.4,-.6,-6.3,-1.7c-1.9,-1.1,-3.5,-2.7,-4.6,-4.6c-1.1,-1.9,-1.7,-4.1,-1.7,-6.3V223.5Z" class="g9_1"/>
<path d="M938.6,223.5c0,-2.2,.6,-4.4,1.7,-6.3c1.1,-1.9,2.7,-3.5,4.6,-4.6c1.9,-1.1,4.1,-1.7,6.3,-1.7h273.2c2.2,0,4.4,.6,6.3,1.7c1.9,1.1,3.5,2.7,4.5,4.6c1.1,1.9,1.7,4.1,1.7,6.3v50.2c0,2.2,-.5,4.4,-1.7,6.3c-1,1.9,-2.6,3.5,-4.5,4.6c-1.9,1.1,-4.1,1.7,-6.3,1.7H951.2c-2.3,0,-4.4,-.6,-6.3,-1.7c-1.9,-1.1,-3.5,-2.7,-4.6,-4.6c-1.1,-1.9,-1.7,-4.1,-1.7,-6.3V223.5Z" class="ga_1"/>
<g fill="#FFFFFF"  clip-path="url(#c0_1)">
<use xlink:href="#f0_d" transform="matrix(18,0,0,18,1022.2,259.6)"/>
<use xlink:href="#f0_e" transform="matrix(18,0,0,18,1039.9,259.6)"/>
<use xlink:href="#f0_f" transform="matrix(18,0,0,18,1054.4,259.6)"/>
<use xlink:href="#f0_g" transform="matrix(18,0,0,18,1063.4,259.6)"/>
<use xlink:href="#f0_h" transform="matrix(18,0,0,18,1077.2,259.6)"/>
<use xlink:href="#f0_e" transform="matrix(18,0,0,18,1091.7,259.6)"/>
<use xlink:href="#f0_e" transform="matrix(18,0,0,18,1106.2,259.6)"/>
<use xlink:href="#f0_i" transform="matrix(18,0,0,18,1120.5,259.6)"/>
<use xlink:href="#f0_k" transform="matrix(18,0,0,18,1139.3,259.6)"/>
</g>
<text clip-path="url(#c0_1)" x="1022.2" y="259.6" dx="0,0,0,-.2,.1,.1,0,-.1,0,0" class="s1_1">Notebook 2</text>
<path fill-rule="evenodd" d="M266.1,643H69.7V172H462.5V643H266.1Z" class="g0_1"/>
<path d="M266.1,643H69.7V172H462.5V643H266.1Z" class="gb_1"/>
<g fill="#000000"  clip-path="url(#c0_1)">
<use xlink:href="#f0_6" transform="matrix(18,0,0,18,201.5,220.6)"/>
<use xlink:href="#f0_n" transform="matrix(18,0,0,18,214.9,220.6)"/>
<use xlink:href="#f0_6" transform="matrix(18,0,0,18,229.1,220.6)"/>
<use xlink:href="#f0_7" transform="matrix(18,0,0,18,242.1,220.6)"/>
<use xlink:href="#f0_o" transform="matrix(18,0,0,18,256.8,220.6)"/>
<use xlink:href="#f0_8" transform="matrix(18,0,0,18,274.5,220.6)"/>
<use xlink:href="#f0_p" transform="matrix(18,0,0,18,287.7,220.6)"/>
<use xlink:href="#f0_4" transform="matrix(18,0,0,18,294.8,220.6)"/>
<use xlink:href="#f0_d" transform="matrix(18,0,0,18,312.9,220.6)"/>
<use xlink:href="#f0_j" transform="matrix(18,0,0,18,80.7,286.6)"/>
<use xlink:href="#f0_q" transform="matrix(18,0,0,18,94.6,286.6)"/>
<use xlink:href="#f0_s" transform="matrix(18,0,0,18,121.8,286.6)"/>
<use xlink:href="#f0_g" transform="matrix(18,0,0,18,139.2,286.6)"/>
<use xlink:href="#f0_f" transform="matrix(18,0,0,18,152.7,286.6)"/>
<use xlink:href="#f0_t" transform="matrix(18,0,0,18,168.1,286.6)"/>
<use xlink:href="#f0_e" transform="matrix(18,0,0,18,182.6,286.6)"/>
<use xlink:href="#f0_f" transform="matrix(18,0,0,18,197.1,286.6)"/>
<use xlink:href="#f0_g" transform="matrix(18,0,0,18,206,286.6)"/>
<use xlink:href="#f0_h" transform="matrix(18,0,0,18,219.7,286.6)"/>
<use xlink:href="#f0_e" transform="matrix(18,0,0,18,234.2,286.6)"/>
<use xlink:href="#f0_e" transform="matrix(18,0,0,18,248.7,286.6)"/>
<use xlink:href="#f0_i" transform="matrix(18,0,0,18,263.2,286.6)"/>
<use xlink:href="#f0_u" transform="matrix(18,0,0,18,281.8,286.6)"/>
<use xlink:href="#f0_v" transform="matrix(18,0,0,18,296.3,286.6)"/>
<use xlink:href="#f0_f" transform="matrix(18,0,0,18,309.1,286.6)"/>
<use xlink:href="#f0_w" transform="matrix(18,0,0,18,318.3,286.6)"/>
<use xlink:href="#f0_x" transform="matrix(18,0,0,18,339,286.6)"/>
<use xlink:href="#f0_y" transform="matrix(18,0,0,18,347.4,286.6)"/>
<use xlink:href="#f0_e" transform="matrix(18,0,0,18,356.6,286.6)"/>
<use xlink:href="#f0_z" transform="matrix(18,0,0,18,371.1,286.6)"/>
<use xlink:href="#f0_10" transform="matrix(18,0,0,18,121.8,319.6)"/>
<use xlink:href="#f0_v" transform="matrix(18,0,0,18,136.3,319.6)"/>
<use xlink:href="#f0_f" transform="matrix(18,0,0,18,149.1,319.6)"/>
<use xlink:href="#f0_v" transform="matrix(18,0,0,18,158,319.6)"/>
<use xlink:href="#f0_h" transform="matrix(18,0,0,18,171.1,319.6)"/>
<use xlink:href="#f0_v" transform="matrix(18,0,0,18,185.6,319.6)"/>
<use xlink:href="#f0_11" transform="matrix(18,0,0,18,198.8,319.6)"/>
<use xlink:href="#f0_g" transform="matrix(18,0,0,18,209.6,319.6)"/>
<use xlink:href="#f0_k" transform="matrix(18,0,0,18,80.7,352.6)"/>
<use xlink:href="#f0_q" transform="matrix(18,0,0,18,94.6,352.6)"/>
<use xlink:href="#f0_s" transform="matrix(18,0,0,18,121.8,352.6)"/>
<use xlink:href="#f0_g" transform="matrix(18,0,0,18,139.2,352.6)"/>
<use xlink:href="#f0_f" transform="matrix(18,0,0,18,152.7,352.6)"/>
<use xlink:href="#f0_v" transform="matrix(18,0,0,18,168.1,352.6)"/>
<use xlink:href="#f0_12" transform="matrix(18,0,0,18,181.3,352.6)"/>
<use xlink:href="#f0_f" transform="matrix(18,0,0,18,192.9,352.6)"/>
<use xlink:href="#f0_13" transform="matrix(18,0,0,18,202.1,352.6)"/>
<use xlink:href="#f0_v" transform="matrix(18,0,0,18,216.5,352.6)"/>
<use xlink:href="#f0_14" transform="matrix(18,0,0,18,229.7,352.6)"/>
<use xlink:href="#f0_t" transform="matrix(18,0,0,18,242.2,352.6)"/>
<use xlink:href="#f0_e" transform="matrix(18,0,0,18,256.7,352.6)"/>
<use xlink:href="#f0_f" transform="matrix(18,0,0,18,271,352.6)"/>
<use xlink:href="#f0_g" transform="matrix(18,0,0,18,280.1,352.6)"/>
<use xlink:href="#f0_h" transform="matrix(18,0,0,18,293.8,352.6)"/>
<use xlink:href="#f0_e" transform="matrix(18,0,0,18,308.3,352.6)"/>
<use xlink:href="#f0_e" transform="matrix(18,0,0,18,322.8,352.6)"/>
<use xlink:href="#f0_i" transform="matrix(18,0,0,18,337.1,352.6)"/>
<use xlink:href="#f0_x" transform="matrix(18,0,0,18,355.9,352.6)"/>
<use xlink:href="#f0_y" transform="matrix(18,0,0,18,364.3,352.6)"/>
<use xlink:href="#f0_e" transform="matrix(18,0,0,18,373.4,352.6)"/>
<use xlink:href="#f0_z" transform="matrix(18,0,0,18,387.9,352.6)"/>
<use xlink:href="#f0_u" transform="matrix(18,0,0,18,121.8,385.6)"/>
<use xlink:href="#f0_y" transform="matrix(18,0,0,18,136.3,385.6)"/>
<use xlink:href="#f0_e" transform="matrix(18,0,0,18,145.4,385.6)"/>
<use xlink:href="#f0_15" transform="matrix(18,0,0,18,159.9,385.6)"/>
<use xlink:href="#f0_g" transform="matrix(18,0,0,18,166.5,385.6)"/>
<use xlink:href="#f0_12" transform="matrix(18,0,0,18,180.2,385.6)"/>
<use xlink:href="#f0_f" transform="matrix(18,0,0,18,191.8,385.6)"/>
<use xlink:href="#f0_x" transform="matrix(18,0,0,18,207.2,385.6)"/>
<use xlink:href="#f0_e" transform="matrix(18,0,0,18,215,385.6)"/>
<use xlink:href="#f0_14" transform="matrix(18,0,0,18,229.5,385.6)"/>
<use xlink:href="#f0_10" transform="matrix(18,0,0,18,235.8,385.6)"/>
<use xlink:href="#f0_g" transform="matrix(18,0,0,18,250.3,385.6)"/>
<use xlink:href="#f0_y" transform="matrix(18,0,0,18,264,385.6)"/>
<use xlink:href="#f0_17" transform="matrix(18,0,0,18,80.7,418.6)"/>
<use xlink:href="#f0_q" transform="matrix(18,0,0,18,94.6,418.6)"/>
<use xlink:href="#f0_7" transform="matrix(18,0,0,18,121.8,418.6)"/>
<use xlink:href="#f0_w" transform="matrix(18,0,0,18,136.4,418.6)"/>
<use xlink:href="#f0_g" transform="matrix(18,0,0,18,150.9,418.6)"/>
<use xlink:href="#f0_12" transform="matrix(18,0,0,18,164.7,418.6)"/>
<use xlink:href="#f0_i" transform="matrix(18,0,0,18,176.3,418.6)"/>
<use xlink:href="#f0_19" transform="matrix(18,0,0,18,194.9,418.6)"/>
<use xlink:href="#f0_x" transform="matrix(18,0,0,18,201.1,418.6)"/>
<use xlink:href="#f0_t" transform="matrix(18,0,0,18,215.8,418.6)"/>
<use xlink:href="#f0_e" transform="matrix(18,0,0,18,230.3,418.6)"/>
<use xlink:href="#f0_f" transform="matrix(18,0,0,18,244.8,418.6)"/>
<use xlink:href="#f0_g" transform="matrix(18,0,0,18,253.6,418.6)"/>
<use xlink:href="#f0_h" transform="matrix(18,0,0,18,267.5,418.6)"/>
<use xlink:href="#f0_e" transform="matrix(18,0,0,18,281.9,418.6)"/>
<use xlink:href="#f0_e" transform="matrix(18,0,0,18,296.3,418.6)"/>
<use xlink:href="#f0_i" transform="matrix(18,0,0,18,310.8,418.6)"/>
<use xlink:href="#f0_v" transform="matrix(18,0,0,18,329.5,418.6)"/>
<use xlink:href="#f0_14" transform="matrix(18,0,0,18,342.6,418.6)"/>
<use xlink:href="#f0_y" transform="matrix(18,0,0,18,348.9,418.6)"/>
<use xlink:href="#f0_g" transform="matrix(18,0,0,18,358,418.6)"/>
<use xlink:href="#f0_v" transform="matrix(18,0,0,18,371.9,418.6)"/>
<use xlink:href="#f0_10" transform="matrix(18,0,0,18,385.1,418.6)"/>
<use xlink:href="#f0_1b" transform="matrix(18,0,0,18,399.6,418.6)"/>
<use xlink:href="#f0_g" transform="matrix(18,0,0,18,121.8,451.6)"/>
<use xlink:href="#f0_1c" transform="matrix(18,0,0,18,135.1,451.6)"/>
<use xlink:href="#f0_19" transform="matrix(18,0,0,18,147,451.6)"/>
<use xlink:href="#f0_11" transform="matrix(18,0,0,18,153.2,451.6)"/>
<use xlink:href="#f0_f" transform="matrix(18,0,0,18,163.6,451.6)"/>
<use xlink:href="#f0_11" transform="matrix(18,0,0,18,172.8,451.6)"/>
<use xlink:href="#f0_19" transform="matrix(18,0,0,18,189.8,451.6)"/>
<use xlink:href="#f0_t" transform="matrix(18,0,0,18,196.1,451.6)"/>
<use xlink:href="#f0_f" transform="matrix(18,0,0,18,216.7,451.6)"/>
<use xlink:href="#f0_w" transform="matrix(18,0,0,18,225.9,451.6)"/>
<use xlink:href="#f0_g" transform="matrix(18,0,0,18,240.4,451.6)"/>
<use xlink:href="#f0_12" transform="matrix(18,0,0,18,260.2,451.6)"/>
<use xlink:href="#f0_v" transform="matrix(18,0,0,18,271.7,451.6)"/>
<use xlink:href="#f0_12" transform="matrix(18,0,0,18,284.8,451.6)"/>
<use xlink:href="#f0_w" transform="matrix(18,0,0,18,296.4,451.6)"/>
<use xlink:href="#f0_g" transform="matrix(18,0,0,18,310.9,451.6)"/>
<use xlink:href="#f0_1d" transform="matrix(18,0,0,18,330.9,451.6)"/>
<use xlink:href="#f1_2" transform="matrix(18,0,0,18,339.3,451.6)"/>
<use xlink:href="#f1_3" transform="matrix(18,0,0,18,351.5,451.6)"/>
<use xlink:href="#f1_4" transform="matrix(18,0,0,18,357.8,451.6)"/>
<use xlink:href="#f0_w" transform="matrix(18,0,0,18,378.1,451.6)"/>
<use xlink:href="#f0_v" transform="matrix(18,0,0,18,392.6,451.6)"/>
<use xlink:href="#f0_11" transform="matrix(18,0,0,18,405.8,451.6)"/>
<use xlink:href="#f0_w" transform="matrix(18,0,0,18,416.6,451.6)"/>
<use xlink:href="#f0_1e" transform="matrix(18,0,0,18,431.1,451.6)"/>
<use xlink:href="#f0_1f" transform="matrix(18,0,0,18,80.7,484.6)"/>
<use xlink:href="#f0_q" transform="matrix(18,0,0,18,94.6,484.6)"/>
<use xlink:href="#f0_p" transform="matrix(18,0,0,18,121.8,484.6)"/>
<use xlink:href="#f0_x" transform="matrix(18,0,0,18,128.8,484.6)"/>
<use xlink:href="#f0_t" transform="matrix(18,0,0,18,143.4,484.6)"/>
<use xlink:href="#f0_e" transform="matrix(18,0,0,18,157.9,484.6)"/>
<use xlink:href="#f0_f" transform="matrix(18,0,0,18,172.3,484.6)"/>
<use xlink:href="#f0_1h" transform="matrix(18,0,0,18,181.6,484.6)"/>
<use xlink:href="#f0_y" transform="matrix(18,0,0,18,194.5,484.6)"/>
<use xlink:href="#f0_g" transform="matrix(18,0,0,18,203.7,484.6)"/>
<use xlink:href="#f0_v" transform="matrix(18,0,0,18,217.4,484.6)"/>
<use xlink:href="#f0_10" transform="matrix(18,0,0,18,230.5,484.6)"/>
<use xlink:href="#f0_t" transform="matrix(18,0,0,18,251.3,484.6)"/>
<use xlink:href="#f0_e" transform="matrix(18,0,0,18,265.6,484.6)"/>
<use xlink:href="#f0_f" transform="matrix(18,0,0,18,280.1,484.6)"/>
<use xlink:href="#f0_g" transform="matrix(18,0,0,18,289.1,484.6)"/>
<use xlink:href="#f0_h" transform="matrix(18,0,0,18,302.9,484.6)"/>
<use xlink:href="#f0_e" transform="matrix(18,0,0,18,317.4,484.6)"/>
<use xlink:href="#f0_e" transform="matrix(18,0,0,18,331.9,484.6)"/>
<use xlink:href="#f0_i" transform="matrix(18,0,0,18,346.3,484.6)"/>
<use xlink:href="#f0_v" transform="matrix(18,0,0,18,365,484.6)"/>
<use xlink:href="#f0_t" transform="matrix(18,0,0,18,378.1,484.6)"/>
<use xlink:href="#f0_10" transform="matrix(18,0,0,18,392.6,484.6)"/>
<use xlink:href="#f0_g" transform="matrix(18,0,0,18,121.8,517.6)"/>
<use xlink:href="#f0_1c" transform="matrix(18,0,0,18,135.1,517.6)"/>
<use xlink:href="#f0_g" transform="matrix(18,0,0,18,146.2,517.6)"/>
<use xlink:href="#f0_12" transform="matrix(18,0,0,18,159.9,517.6)"/>
<use xlink:href="#f0_13" transform="matrix(18,0,0,18,171.6,517.6)"/>
<use xlink:href="#f0_f" transform="matrix(18,0,0,18,185.9,517.6)"/>
<use xlink:href="#f0_g" transform="matrix(18,0,0,18,194.9,517.6)"/>
<use xlink:href="#f0_1i" transform="matrix(18,0,0,18,80.7,550.6)"/>
<use xlink:href="#f0_q" transform="matrix(18,0,0,18,94.6,550.6)"/>
<use xlink:href="#f0_p" transform="matrix(18,0,0,18,121.8,550.6)"/>
<use xlink:href="#f0_x" transform="matrix(18,0,0,18,128.8,550.6)"/>
<use xlink:href="#f0_11" transform="matrix(18,0,0,18,143.4,550.6)"/>
<use xlink:href="#f0_13" transform="matrix(18,0,0,18,154.2,550.6)"/>
<use xlink:href="#f0_12" transform="matrix(18,0,0,18,168.7,550.6)"/>
<use xlink:href="#f0_12" transform="matrix(18,0,0,18,180.2,550.6)"/>
<use xlink:href="#f0_g" transform="matrix(18,0,0,18,191.8,550.6)"/>
<use xlink:href="#f0_11" transform="matrix(18,0,0,18,205.5,550.6)"/>
<use xlink:href="#f0_11" transform="matrix(18,0,0,18,216.2,550.6)"/>
<use xlink:href="#f0_x" transform="matrix(18,0,0,18,226.7,550.6)"/>
<use xlink:href="#f0_13" transform="matrix(18,0,0,18,235.1,550.6)"/>
<use xlink:href="#f0_14" transform="matrix(18,0,0,18,249.6,550.6)"/>
<use xlink:href="#f0_1h" transform="matrix(18,0,0,18,255.9,550.6)"/>
<use xlink:href="#f0_1k" transform="matrix(18,0,0,18,268.8,550.6)"/>
<use xlink:href="#f0_y" transform="matrix(18,0,0,18,288.4,550.6)"/>
<use xlink:href="#f0_19" transform="matrix(18,0,0,18,298,550.6)"/>
<use xlink:href="#f0_f" transform="matrix(18,0,0,18,304.1,550.6)"/>
<use xlink:href="#f0_g" transform="matrix(18,0,0,18,313.1,550.6)"/>
<use xlink:href="#f0_g" transform="matrix(18,0,0,18,333.1,550.6)"/>
<use xlink:href="#f0_1c" transform="matrix(18,0,0,18,346.4,550.6)"/>
<use xlink:href="#f0_g" transform="matrix(18,0,0,18,357.5,550.6)"/>
<use xlink:href="#f0_12" transform="matrix(18,0,0,18,371.3,550.6)"/>
<use xlink:href="#f0_13" transform="matrix(18,0,0,18,382.9,550.6)"/>
<use xlink:href="#f0_f" transform="matrix(18,0,0,18,397.2,550.6)"/>
<use xlink:href="#f0_g" transform="matrix(18,0,0,18,406.2,550.6)"/>
<use xlink:href="#f0_10" transform="matrix(18,0,0,18,420,550.6)"/>
<use xlink:href="#f0_t" transform="matrix(18,0,0,18,121.8,583.6)"/>
<use xlink:href="#f0_e" transform="matrix(18,0,0,18,136.3,583.6)"/>
<use xlink:href="#f0_f" transform="matrix(18,0,0,18,150.8,583.6)"/>
<use xlink:href="#f0_g" transform="matrix(18,0,0,18,159.8,583.6)"/>
<use xlink:href="#f0_h" transform="matrix(18,0,0,18,173.5,583.6)"/>
<use xlink:href="#f0_e" transform="matrix(18,0,0,18,188,583.6)"/>
<use xlink:href="#f0_e" transform="matrix(18,0,0,18,202.4,583.6)"/>
<use xlink:href="#f0_i" transform="matrix(18,0,0,18,216.8,583.6)"/>
<use xlink:href="#f0_f" transform="matrix(18,0,0,18,235.6,583.6)"/>
<use xlink:href="#f0_e" transform="matrix(18,0,0,18,244.5,583.6)"/>
<use xlink:href="#f0_f" transform="matrix(18,0,0,18,265.2,583.6)"/>
<use xlink:href="#f0_w" transform="matrix(18,0,0,18,274.3,583.6)"/>
<use xlink:href="#f0_g" transform="matrix(18,0,0,18,288.8,583.6)"/>
<use xlink:href="#f0_12" transform="matrix(18,0,0,18,308.8,583.6)"/>
<use xlink:href="#f0_v" transform="matrix(18,0,0,18,320.1,583.6)"/>
<use xlink:href="#f0_12" transform="matrix(18,0,0,18,333.4,583.6)"/>
<use xlink:href="#f0_w" transform="matrix(18,0,0,18,344.8,583.6)"/>
<use xlink:href="#f0_g" transform="matrix(18,0,0,18,359.3,583.6)"/>
<use xlink:href="#f0_q" transform="matrix(18,0,0,18,373,583.6)"/>
</g>
<g clip-path="url(#c0_1)">
<text x="201.5" y="220.6" dx="0,0,-.1,-.4,0,.1,-.1,.1,0" class="s1_1">EXECUTION</text>
<text x="80.7" y="286.6" class="s1_1">1.</text>
<text x="121.8" y="286.6" dx="0,.1,-.1,0,0,.1,0,-.3,.1,.1,0,0,-.1,0,.1,-.3,0,.1,0,0,-.4,0,0" class="s1_1">Get notebook path from </text>
<text x="121.8" y="319.6" dx="0,.1,-.3,-.3,0,.1,0,.1" class="s1_1">database</text>
<text x="80.7" y="352.6" class="s1_1">2.</text>
<text x="121.8" y="352.6" dx="0,.1,-.1,0,0,0,0,0,.1,0,0,0,.1,-.1,-.2,.1,.1,0,-.1,0,0,0,-.4,0,0" class="s1_1">Get actual notebook from </text>
<text x="121.8" y="385.6" dx="0,.1,-.4,0,0,.1,0,0,0,-.6,0,0,.1,.1" class="s1_1">project folder</text>
<text x="80.7" y="418.6" class="s1_1">3.</text>
<text x="121.8" y="418.6" dx="0,0,.1,.1,0,-.1,0,0,0,0,.1,0,-.3,.2,-.1,0,0,-.1,0,0,0,-.4,.2,0,.1,-.1" class="s1_1">Check if notebook already </text>
<text x="121.8" y="451.6" dx="0,-.4,0,0,-.4,0,.1,0,0,-.1,0,0,.1,.1,-.1,-.1,0,0,.1,.1,0" class="s1_1">exists in the cache (</text>
<text x="339.3" y="451.6" class="s2_1">via</text>
<text x="378.1" y="451.6" dx="0,.1,0,.1,.1" class="s1_1">hash)</text>
<text x="80.7" y="484.6" class="s1_1">4.</text>
<text x="121.8" y="484.6" dx="0,.1,0,0,.1,-.1,.1,-.1,0,-.4,.1,0,.1,0,-.1,0,-.2,.1,.1,0,0,-.1,0,0,.1,.1" class="s1_1">If not, read notebook and </text>
<text x="121.8" y="517.6" dx="0,-.4,-.7,.1,0,-.1,-.2" class="s1_1">execute</text>
<text x="80.7" y="550.6" class="s1_1">5.</text>
<text x="121.8" y="550.6" dx="0,.1,0,0,.1,.1,-.1,0,.1,-.1,-.2,0,.1,0,-.1,0,-.1,0,-.2,-.2,.1,0,-.4,-.7,.1,0,-.1,-.2,.1,.1" class="s1_1">If successful, write executed </text>
<text x="121.8" y="583.6" dx="0,.1,0,-.2,.1,.1,-.1,0,0,0,-.3,0,0,0,.1,.1,0,-.3,.1,-.1,.1,.1" class="s1_1">notebook to the cache.</text>
</g>
<g clip-path="url(#c2_1)">
<path fill-rule="evenodd" d="M898,331h379.7V801.8H898V331Z" class="gc_1"/>
<path fill-rule="evenodd" d="M898,425.1h379.7V801.8H898V425.1Z" class="gd_1"/>
<path fill-rule="evenodd" d="M898,519.3h379.7V801.8H898V519.3Z" class="ge_1"/>
<path fill-rule="evenodd" d="M898,613.4h379.7V801.8H898V613.4Z" class="gf_1"/>
<path fill-rule="evenodd" d="M898,707.6h379.7v94.2H898V707.6Z" class="gg_1"/>
</g>
<path d="M898,394.2c0,-11.1,3,-22,8.5,-31.6C912,353,920,345,929.7,339.4c9.6,-5.5,20.5,-8.4,31.6,-8.4h253.1c11.1,0,22,2.9,31.6,8.4c9.6,5.6,17.6,13.6,23.2,23.2c5.5,9.6,8.4,20.5,8.4,31.6l.1,344.3c0,11.1,-3,22,-8.5,31.7c-5.5,9.6,-13.5,17.6,-23.2,23.1c-9.6,5.6,-20.5,8.5,-31.6,8.5H961.3c-11.1,0,-22,-2.9,-31.7,-8.5C920,787.8,912,779.8,906.5,770.2C900.9,760.6,898,749.6,898,738.6V394.2Z" class="gh_1"/>
<g fill="#000000"  clip-path="url(#c0_1)">
<use xlink:href="#f0_7" transform="matrix(18,0,0,18,1003.3,382.4)"/>
<use xlink:href="#f0_1l" transform="matrix(18,0,0,18,1018,382.4)"/>
<use xlink:href="#f0_7" transform="matrix(18,0,0,18,1033.8,382.4)"/>
<use xlink:href="#f0_1m" transform="matrix(18,0,0,18,1048.4,382.4)"/>
<use xlink:href="#f0_6" transform="matrix(18,0,0,18,1065.5,382.4)"/>
<use xlink:href="#f0_a" transform="matrix(18,0,0,18,1085,382.4)"/>
<use xlink:href="#f0_4" transform="matrix(18,0,0,18,1097.5,382.4)"/>
<use xlink:href="#f0_b" transform="matrix(18,0,0,18,1115.7,382.4)"/>
<use xlink:href="#f0_c" transform="matrix(18,0,0,18,1127.3,382.4)"/>
<use xlink:href="#f0_6" transform="matrix(18,0,0,18,1144.1,382.4)"/>
<use xlink:href="#f0_3" transform="matrix(18,0,0,18,1157.4,382.4)"/>
</g>
<text clip-path="url(#c0_1)" x="1003.3" y="382.4" dx="0,0,0,-.1,0,0,-.1,-.1,0,0,-.1,-.1" class="s1_1">CACHE FOLDER</text>
<path fill-rule="evenodd" d="M906.9,546.6c0,-8.1,2.2,-16,6.2,-23c4.1,-7,9.9,-12.8,16.8,-16.9c7,-4,15,-6.1,23,-6.1h269.8c8,0,16,2.1,23,6.1c7,4.1,12.8,9.9,16.8,16.9c4.1,7,6.2,14.9,6.2,23V730.5c0,8.1,-2.1,16.1,-6.1,23c-4.1,7.1,-9.9,12.9,-16.9,16.9c-7,4,-14.9,6.1,-23,6.1l-269.8,.1c-8,0,-16,-2.1,-23,-6.2c-7,-4,-12.8,-9.8,-16.8,-16.8c-4,-7,-6.2,-15,-6.2,-23v-184Z" class="g0_1"/>
<path d="M906.9,546.6c0,-8.1,2.2,-16,6.2,-23c4.1,-7,9.9,-12.8,16.8,-16.9c7,-4,15,-6.1,23,-6.1h269.8c8,0,16,2.1,23,6.1c7,4.1,12.8,9.9,16.8,16.9c4.1,7,6.2,14.9,6.2,23V730.5c0,8.1,-2.1,16.1,-6.1,23c-4.1,7.1,-9.9,12.9,-16.9,16.9c-7,4,-14.9,6.1,-23,6.1l-269.8,.1c-8,0,-16,-2.1,-23,-6.2c-7,-4,-12.8,-9.8,-16.8,-16.8c-4,-7,-6.2,-15,-6.2,-23v-184Z" class="gb_1"/>
<g fill="#000000"  clip-path="url(#c0_1)">
<use xlink:href="#f0_7" transform="matrix(18,0,0,18,942.6,546.9)"/>
<use xlink:href="#f0_4" transform="matrix(18,0,0,18,957.1,546.9)"/>
<use xlink:href="#f0_1n" transform="matrix(18,0,0,18,975.3,546.9)"/>
<use xlink:href="#f0_1n" transform="matrix(18,0,0,18,998.8,546.9)"/>
<use xlink:href="#f0_p" transform="matrix(18,0,0,18,1022.2,546.9)"/>
<use xlink:href="#f0_8" transform="matrix(18,0,0,18,1029.2,546.9)"/>
<use xlink:href="#f0_8" transform="matrix(18,0,0,18,1042.9,546.9)"/>
<use xlink:href="#f0_6" transform="matrix(18,0,0,18,1056.4,546.9)"/>
<use xlink:href="#f0_c" transform="matrix(18,0,0,18,1069.6,546.9)"/>
<use xlink:href="#f0_d" transform="matrix(18,0,0,18,1092.7,546.9)"/>
<use xlink:href="#f0_4" transform="matrix(18,0,0,18,1110.5,546.9)"/>
<use xlink:href="#f0_8" transform="matrix(18,0,0,18,1127.9,546.9)"/>
<use xlink:href="#f0_6" transform="matrix(18,0,0,18,1141.2,546.9)"/>
<use xlink:href="#f0_1o" transform="matrix(18,0,0,18,1154.6,546.9)"/>
<use xlink:href="#f0_4" transform="matrix(18,0,0,18,1169.6,546.9)"/>
<use xlink:href="#f0_4" transform="matrix(18,0,0,18,1187.8,546.9)"/>
<use xlink:href="#f0_1p" transform="matrix(18,0,0,18,1205.9,546.9)"/>
<use xlink:href="#f0_1q" transform="matrix(18,0,0,18,1220,546.9)"/>
</g>
<text clip-path="url(#c0_1)" x="942.6" y="546.9" dx="0,-.1,0,0,-.1,.1,.3,0,-.1,-.1,0,.1,-.8,-.1,0,0,0,0,-.2" class="s1_1">COMMITTED NOTEBOOKS</text>
<g clip-path="url(#c3_1)">
<path fill-rule="evenodd" d="M917.2,575.9h339.6v75.3H917.2V575.9Z" class="gi_1"/>
<path fill-rule="evenodd" d="M917.2,586.6h339.6v64.6H917.2V586.6Z" class="gj_1"/>
<path fill-rule="evenodd" d="M917.2,597.4h339.6v53.8H917.2V597.4Z" class="gk_1"/>
<path fill-rule="evenodd" d="M917.2,608.2h339.6v43H917.2v-43Z" class="gl_1"/>
<path fill-rule="evenodd" d="M917.2,618.9h339.6v32.3H917.2V618.9Z" class="gm_1"/>
<path fill-rule="evenodd" d="M917.2,629.6h339.6v21.6H917.2V629.6Z" class="gn_1"/>
<path fill-rule="evenodd" d="M917.2,640.4h339.6v10.8H917.2V640.4Z" class="go_1"/>
</g>
<path d="M917.3,588.4c0,-2.2,.6,-4.4,1.7,-6.3c1.1,-1.9,2.7,-3.5,4.6,-4.6c1.9,-1,4,-1.6,6.2,-1.6h314.5c2.2,0,4.3,.6,6.2,1.7c1.9,1.1,3.5,2.7,4.6,4.6c1.1,1.9,1.7,4,1.7,6.3v50.1c0,2.3,-.5,4.4,-1.7,6.3c-1.1,1.9,-2.7,3.5,-4.6,4.6c-1.9,1.1,-4,1.7,-6.2,1.7H929.8c-2.2,0,-4.4,-.6,-6.3,-1.7c-1.9,-1.1,-3.5,-2.7,-4.6,-4.6c-1,-1.9,-1.7,-4,-1.7,-6.3l.1,-50.2Z" class="gp_1"/>
<g fill="#000000"  clip-path="url(#c0_1)">
<use xlink:href="#f0_d" transform="matrix(18,0,0,18,1020.6,624.6)"/>
<use xlink:href="#f0_e" transform="matrix(18,0,0,18,1038.3,624.6)"/>
<use xlink:href="#f0_f" transform="matrix(18,0,0,18,1052.8,624.6)"/>
<use xlink:href="#f0_g" transform="matrix(18,0,0,18,1061.8,624.6)"/>
<use xlink:href="#f0_h" transform="matrix(18,0,0,18,1075.5,624.6)"/>
<use xlink:href="#f0_e" transform="matrix(18,0,0,18,1089.9,624.6)"/>
<use xlink:href="#f0_e" transform="matrix(18,0,0,18,1104.4,624.6)"/>
<use xlink:href="#f0_i" transform="matrix(18,0,0,18,1118.9,624.6)"/>
<use xlink:href="#f0_1l" transform="matrix(18,0,0,18,1137.5,624.6)"/>
</g>
<text clip-path="url(#c0_1)" x="1020.6" y="624.6" dx="0,0,0,-.2,.1,-.1,0,0,0,-.1" class="s1_1">Notebook A</text>
<g clip-path="url(#c4_1)">
<path fill-rule="evenodd" d="M917.2,671.1h339.6v75.3H917.2V671.1Z" class="gi_1"/>
<path fill-rule="evenodd" d="M917.2,681.9h339.6v64.5H917.2V681.9Z" class="gj_1"/>
<path fill-rule="evenodd" d="M917.2,692.7h339.6v53.7H917.2V692.7Z" class="gk_1"/>
<path fill-rule="evenodd" d="M917.2,703.4h339.6v43H917.2v-43Z" class="gl_1"/>
<path fill-rule="evenodd" d="M917.2,714.1h339.6v32.3H917.2V714.1Z" class="gm_1"/>
<path fill-rule="evenodd" d="M917.2,724.9h339.6v21.5H917.2V724.9Z" class="gn_1"/>
<path fill-rule="evenodd" d="M917.2,735.7h339.6v10.7H917.2V735.7Z" class="go_1"/>
</g>
<path d="M917.3,683.6c0,-2.2,.6,-4.3,1.7,-6.2c1.1,-1.9,2.7,-3.5,4.6,-4.6c1.9,-1.1,4,-1.7,6.2,-1.7h314.5c2.2,0,4.3,.6,6.2,1.7c1.9,1.1,3.5,2.7,4.6,4.6c1.1,1.9,1.7,4.1,1.7,6.3v50.2c0,2.2,-.5,4.4,-1.7,6.3c-1.1,1.9,-2.7,3.5,-4.6,4.6c-1.9,1,-4,1.6,-6.2,1.6H929.8c-2.2,0,-4.4,-.5,-6.3,-1.6c-1.9,-1.1,-3.5,-2.7,-4.6,-4.6c-1,-1.9,-1.7,-4.1,-1.7,-6.3l.1,-50.3Z" class="gp_1"/>
<g fill="#000000"  clip-path="url(#c0_1)">
<use xlink:href="#f0_d" transform="matrix(18,0,0,18,1021,719.7)"/>
<use xlink:href="#f0_e" transform="matrix(18,0,0,18,1038.7,719.7)"/>
<use xlink:href="#f0_f" transform="matrix(18,0,0,18,1053.2,719.7)"/>
<use xlink:href="#f0_g" transform="matrix(18,0,0,18,1062.2,719.7)"/>
<use xlink:href="#f0_h" transform="matrix(18,0,0,18,1076,719.7)"/>
<use xlink:href="#f0_e" transform="matrix(18,0,0,18,1090.3,719.7)"/>
<use xlink:href="#f0_e" transform="matrix(18,0,0,18,1104.8,719.7)"/>
<use xlink:href="#f0_i" transform="matrix(18,0,0,18,1119.3,719.7)"/>
<use xlink:href="#f0_1o" transform="matrix(18,0,0,18,1137.9,719.7)"/>
</g>
<text clip-path="url(#c0_1)" x="1021" y="719.7" dx="0,0,0,-.2,.1,-.1,0,0,0,-.1" class="s1_1">Notebook B</text>
<g clip-path="url(#c5_1)">
<path fill-rule="evenodd" d="M906.9,400.4h361.8v80.2H906.9V400.4Z" class="gq_1"/>
<path fill-rule="evenodd" d="M906.9,411.9h361.8v68.7H906.9V411.9Z" class="gr_1"/>
<path fill-rule="evenodd" d="M906.9,423.4h361.8v57.2H906.9V423.4Z" class="gs_1"/>
<path fill-rule="evenodd" d="M906.9,434.8h361.8v45.8H906.9V434.8Z" class="gt_1"/>
<path fill-rule="evenodd" d="M906.9,446.3h361.8v34.3H906.9V446.3Z" class="gu_1"/>
<path fill-rule="evenodd" d="M906.9,457.7h361.8v22.9H906.9V457.7Z" class="gv_1"/>
<path fill-rule="evenodd" d="M906.9,469.2h361.8v11.4H906.9V469.2Z" class="gw_1"/>
</g>
<path d="M906.9,413.8c0,-2.4,.6,-4.7,1.8,-6.7c1.2,-2,2.9,-3.7,4.9,-4.9c2,-1.2,4.3,-1.8,6.7,-1.8h335c2.4,0,4.7,.6,6.7,1.8c2,1.2,3.7,2.9,4.9,4.9c1.2,2,1.8,4.3,1.8,6.7v53.4c0,2.4,-.6,4.7,-1.8,6.7c-1.1,2,-2.8,3.7,-4.8,4.9c-2.1,1.2,-4.4,1.8,-6.8,1.8h-335c-2.4,0,-4.7,-.6,-6.7,-1.8c-2,-1.1,-3.7,-2.8,-4.9,-4.8c-1.2,-2.1,-1.8,-4.4,-1.8,-6.8V413.8Z" class="gx_1"/>
<g fill="#000000"  clip-path="url(#c0_1)">
<use xlink:href="#f0_2" transform="matrix(18,0,0,18,979.5,451.5)"/>
<use xlink:href="#f0_3" transform="matrix(18,0,0,18,993.5,451.5)"/>
<use xlink:href="#f0_4" transform="matrix(18,0,0,18,1008.2,451.5)"/>
<use xlink:href="#f0_5" transform="matrix(18,0,0,18,1025.9,451.5)"/>
<use xlink:href="#f0_6" transform="matrix(18,0,0,18,1034.7,451.5)"/>
<use xlink:href="#f0_7" transform="matrix(18,0,0,18,1047.7,451.5)"/>
<use xlink:href="#f0_8" transform="matrix(18,0,0,18,1062.5,451.5)"/>
<use xlink:href="#f0_c" transform="matrix(18,0,0,18,1082.2,451.5)"/>
<use xlink:href="#f0_1l" transform="matrix(18,0,0,18,1098.7,451.5)"/>
<use xlink:href="#f0_8" transform="matrix(18,0,0,18,1112.4,451.5)"/>
<use xlink:href="#f0_1l" transform="matrix(18,0,0,18,1123.6,451.5)"/>
<use xlink:href="#f0_1o" transform="matrix(18,0,0,18,1139.5,451.5)"/>
<use xlink:href="#f0_1l" transform="matrix(18,0,0,18,1154.1,451.5)"/>
<use xlink:href="#f0_1q" transform="matrix(18,0,0,18,1170.1,451.5)"/>
<use xlink:href="#f0_6" transform="matrix(18,0,0,18,1182.8,451.5)"/>
</g>
<text clip-path="url(#c0_1)" x="979.5" y="451.5" dx="0,-.1,-.2,-.5,.1,-.4,.1,0,0,-.4,-2.1,-2.2,0,-.3,.1,0" class="s1_1">PROJECT DATABASE</text>
<path d="M1268.7,440.6c1,0,2,-.3,2.9,-.7m2.5,-1.7c.8,-.7,1.5,-1.4,2.2,-2.3m1.8,-2.4c.5,-.9,1.1,-1.7,1.6,-2.7m1.5,-2.8c.4,-.8,.8,-1.7,1.2,-2.7m1.2,-2.9c.4,-.9,.8,-1.9,1.1,-2.9m1,-2.8c.3,-1,.7,-1.9,1,-2.9m.9,-3.1c.3,-1,.5,-1.9,.8,-2.9m.8,-3c.2,-1,.4,-2,.7,-3m.7,-3.1c.2,-.9,.4,-1.9,.6,-2.9m.6,-3c.2,-1,.4,-2,.5,-3m.5,-3.2c.2,-1,.3,-1.9,.5,-2.9m.5,-3.1c.1,-1,.2,-2,.3,-3m.4,-3.1c.1,-1,.3,-2.1,.3,-3.1m.3,-3c.1,-1,.2,-2.1,.3,-3.1m.2,-3.1c.1,-1,.1,-2,.2,-3.1m.2,-3c0,-1.1,.1,-2.1,.1,-3.1m.1,-3.1c0,-1,0,-2,0,-3.1m0,-3.1c0,-1,0,-2.1,0,-3m-.1,-3.2c-.1,-1,-.2,-2,-.2,-3m-.3,-3c-.1,-1.1,-.2,-2.1,-.3,-3.1m-.4,-3.1c-.1,-1,-.3,-2,-.5,-3.1m-.5,-2.9c-.2,-1,-.4,-2,-.6,-3m-.7,-3.1c-.2,-1,-.4,-2,-.7,-3m-.8,-2.9c-.3,-1,-.5,-2,-.9,-2.9m-.9,-3c-.4,-1,-.7,-2,-1,-2.9m-1.1,-2.9c-.4,-.9,-.8,-1.8,-1.2,-2.8m-1.3,-2.9c-.4,-.9,-.8,-1.8,-1.3,-2.7m-1.4,-2.8c-.5,-.9,-.9,-1.7,-1.5,-2.6m-1.5,-2.7c-.6,-.9,-1.1,-1.8,-1.7,-2.6m-1.7,-2.5c-.6,-.9,-1.2,-1.7,-1.8,-2.6m-1.9,-2.4c-.7,-.8,-1.3,-1.6,-2,-2.3m-2,-2.3c-.8,-.7,-1.5,-1.4,-2.3,-2.2m-2.2,-2.1c-.8,-.6,-1.6,-1.3,-2.3,-1.9m-2.6,-1.9c-.8,-.5,-1.7,-1.1,-2.5,-1.7m-2.6,-1.5c-1,-.4,-1.9,-.9,-2.9,-1.4m-2.8,-1.1c-.8,-.3,-1.5,-.5,-2.3,-.8" class="gy_1"/>
<path fill-rule="evenodd" d="M1237,248.6l9.8,-3.1l-1.4,9.1l-8.4,-6Z" class="gz_1"/>
<path d="M1268.7,440.5c.9,0,1.8,-.3,2.8,-.9m2.2,-2.1c.6,-.7,1.2,-1.5,1.7,-2.5m1.6,-2.9c.5,-.8,.9,-1.7,1.3,-2.6m1.1,-2.8c.4,-1,.8,-2.1,1.1,-3.2m1,-2.7c.3,-.9,.6,-1.9,.9,-2.8m.8,-3.1c.3,-1,.6,-2.1,.9,-3.1m.7,-3c.2,-.9,.4,-1.8,.7,-2.8m.6,-3c.3,-1,.5,-2,.7,-3.1m.6,-3.1c.2,-1,.4,-2,.6,-3.1m.5,-2.9c.2,-.9,.4,-1.9,.5,-2.9m.6,-3.1c.1,-1.1,.3,-2.1,.4,-3.1m.5,-3.2c.1,-1,.3,-1.9,.4,-2.9m.4,-3c.2,-1,.3,-2.1,.4,-3.1m.4,-3c.1,-1.1,.2,-2.1,.4,-3.2m.3,-3.1c.1,-1,.2,-2,.3,-3m.4,-3c0,-1,.1,-2,.2,-3.1m.3,-3c.1,-1,.2,-2.1,.3,-3.1m.2,-3.1c.1,-1.1,.2,-2.1,.3,-3.1m.1,-3c.1,-1.1,.2,-2.1,.2,-3.1m.2,-3.1c.1,-1,.1,-2,.2,-3.1m.1,-3c.1,-1.1,.1,-2.1,.1,-3.1m.2,-3.1c0,-1,0,-2.1,.1,-3.1m.1,-3c0,-1.1,0,-2.1,0,-3.1m.1,-3.1c0,-1,0,-2.1,0,-3.1m0,-3.1c0,-.6,0,-1.2,0,-1.8c0,-.4,0,-.9,0,-1.3m0,-3.1c0,-1,0,-2.1,-.1,-3.1m0,-3.1c-.1,-1,-.1,-2,-.2,-3m-.1,-3.1c-.1,-1,-.1,-2,-.2,-3m-.2,-3.1c-.1,-1,-.2,-2.1,-.3,-3.1m-.2,-3.1c-.1,-1,-.2,-2.1,-.3,-3.1m-.4,-3c-.1,-1,-.2,-2,-.3,-3m-.4,-3c-.1,-1,-.3,-2.1,-.4,-3.1m-.5,-3.1c-.2,-1,-.4,-2.1,-.5,-3.1m-.6,-3c-.1,-1,-.3,-2,-.5,-3m-.6,-2.9c-.2,-1.1,-.4,-2.1,-.6,-3.1m-.7,-3c-.2,-1,-.5,-2.1,-.7,-3.1m-.8,-2.9c-.2,-1,-.5,-2,-.7,-3m-.9,-2.9c-.2,-1,-.5,-2,-.8,-2.9m-.9,-3.1c-.3,-1,-.7,-1.9,-1,-2.9m-1,-2.9c-.3,-.9,-.6,-1.9,-1,-2.8m-1.1,-2.9c-.3,-1,-.7,-1.9,-1.1,-2.9m-1.2,-2.9c-.4,-1,-.8,-1.9,-1.3,-2.8m-1.2,-2.7c-.4,-1,-.9,-1.9,-1.3,-2.8m-1.5,-2.8c-.5,-.9,-1,-1.9,-1.5,-2.7m-1.5,-2.7c-.5,-.8,-1,-1.6,-1.5,-2.5m-1.8,-2.7c-.6,-.8,-1.2,-1.7,-1.8,-2.5m-1.8,-2.4c-.6,-.8,-1.3,-1.6,-1.9,-2.3m-2.1,-2.4c-.8,-.7,-1.5,-1.5,-2.2,-2.2m-2.2,-2c-.9,-.7,-1.6,-1.3,-2.5,-1.9m-2.6,-1.8c-.8,-.5,-1.7,-1,-2.6,-1.4" class="gy_1"/>
<path fill-rule="evenodd" d="M1237,153.4l10,-2.4l-2.1,8.9l-7.9,-6.5Z" class="gz_1"/>
<g clip-path="url(#c6_1)">
<path fill-rule="evenodd" d="M521.7,172H857.4V566.4H521.7V172Z" class="g10_1"/>
<path fill-rule="evenodd" d="M521.7,221.3H857.4V566.4H521.7V221.3Z" class="g11_1"/>
<path fill-rule="evenodd" d="M521.7,270.6H857.4V566.4H521.7V270.6Z" class="g12_1"/>
<path fill-rule="evenodd" d="M521.7,319.9H857.4V566.4H521.7V319.9Z" class="g13_1"/>
<path fill-rule="evenodd" d="M521.7,369.2H857.4V566.4H521.7V369.2Z" class="g14_1"/>
<path fill-rule="evenodd" d="M521.7,418.5H857.4V566.4H521.7V418.5Z" class="g15_1"/>
<path fill-rule="evenodd" d="M521.7,467.8H857.4v98.6H521.7V467.8Z" class="g16_1"/>
<path fill-rule="evenodd" d="M521.7,517.1H857.4v49.3H521.7V517.1Z" class="g17_1"/>
</g>
<path d="M521.8,227.9c0,-9.8,2.6,-19.4,7.5,-28c4.8,-8.4,11.9,-15.5,20.4,-20.4c8.5,-4.9,18.2,-7.5,28,-7.5H801.4c9.9,0,19.5,2.6,28,7.5c8.5,4.9,15.6,12,20.5,20.5c4.9,8.5,7.5,18.1,7.5,28V510.5c0,9.8,-2.6,19.4,-7.5,27.9c-4.9,8.5,-12,15.6,-20.5,20.5c-8.5,4.9,-18.1,7.5,-28,7.5H577.7c-9.9,0,-19.5,-2.6,-28,-7.5C541.2,554,534.1,547,529.2,538.4c-4.9,-8.5,-7.5,-18.1,-7.5,-27.9l.1,-282.6Z" class="g18_1"/>
<g fill="#000000"  clip-path="url(#c0_1)">
<use xlink:href="#f0_6" transform="matrix(18,0,0,18,630.2,221.4)"/>
<use xlink:href="#f0_n" transform="matrix(18,0,0,18,643.6,221.4)"/>
<use xlink:href="#f0_6" transform="matrix(18,0,0,18,657.8,221.4)"/>
<use xlink:href="#f0_7" transform="matrix(18,0,0,18,671,221.4)"/>
<use xlink:href="#f0_o" transform="matrix(18,0,0,18,685.6,221.4)"/>
<use xlink:href="#f0_8" transform="matrix(18,0,0,18,703.2,221.4)"/>
<use xlink:href="#f0_4" transform="matrix(18,0,0,18,715.9,221.4)"/>
<use xlink:href="#f0_3" transform="matrix(18,0,0,18,733.9,221.4)"/>
</g>
<text clip-path="url(#c0_1)" x="630.2" y="221.4" dx="0,0,-.1,-.3,0,-.1,-.7,-.2" class="s1_1">EXECUTOR</text>
<path fill-rule="evenodd" d="M540.4,282.3c0,-2.2,.6,-4.4,1.7,-6.3c1.1,-1.9,2.7,-3.5,4.6,-4.6c1.9,-1.1,4.1,-1.7,6.3,-1.7l273.2,.1c2.2,0,4.3,.5,6.2,1.6c2,1.1,3.6,2.7,4.6,4.6c1.1,1.9,1.7,4.1,1.7,6.3v50.2c0,2.2,-.5,4.4,-1.7,6.3c-1,1.9,-2.6,3.5,-4.6,4.6c-1.9,1.1,-4,1.7,-6.2,1.7H552.9c-2.2,0,-4.3,-.6,-6.2,-1.7c-1.9,-1.1,-3.5,-2.7,-4.6,-4.6c-1.1,-1.9,-1.7,-4.1,-1.7,-6.3V282.3Z" class="g9_1"/>
<path d="M540.4,282.3c0,-2.2,.6,-4.4,1.7,-6.3c1.1,-1.9,2.7,-3.5,4.6,-4.6c1.9,-1.1,4.1,-1.7,6.3,-1.7l273.2,.1c2.2,0,4.3,.5,6.2,1.6c2,1.1,3.6,2.7,4.6,4.6c1.1,1.9,1.7,4.1,1.7,6.3v50.2c0,2.2,-.5,4.4,-1.7,6.3c-1,1.9,-2.6,3.5,-4.6,4.6c-1.9,1.1,-4,1.7,-6.2,1.7H552.9c-2.2,0,-4.3,-.6,-6.2,-1.7c-1.9,-1.1,-3.5,-2.7,-4.6,-4.6c-1.1,-1.9,-1.7,-4.1,-1.7,-6.3V282.3Z" class="ga_1"/>
<g fill="#FFFFFF"  clip-path="url(#c0_1)">
<use xlink:href="#f0_d" transform="matrix(18,0,0,18,592.9,318.4)"/>
<use xlink:href="#f0_e" transform="matrix(18,0,0,18,610.8,318.4)"/>
<use xlink:href="#f0_f" transform="matrix(18,0,0,18,625.1,318.4)"/>
<use xlink:href="#f0_g" transform="matrix(18,0,0,18,634.1,318.4)"/>
<use xlink:href="#f0_h" transform="matrix(18,0,0,18,647.9,318.4)"/>
<use xlink:href="#f0_e" transform="matrix(18,0,0,18,662.4,318.4)"/>
<use xlink:href="#f0_e" transform="matrix(18,0,0,18,676.8,318.4)"/>
<use xlink:href="#f0_i" transform="matrix(18,0,0,18,691.3,318.4)"/>
<use xlink:href="#f0_j" transform="matrix(18,0,0,18,710,318.4)"/>
<use xlink:href="#f0_7" transform="matrix(18,0,0,18,730.1,318.4)"/>
<use xlink:href="#f0_e" transform="matrix(18,0,0,18,744.8,318.4)"/>
<use xlink:href="#f0_u" transform="matrix(18,0,0,18,759.3,318.4)"/>
<use xlink:href="#f0_1b" transform="matrix(18,0,0,18,773.5,318.4)"/>
</g>
<text clip-path="url(#c0_1)" x="592.9" y="318.4" dx="0,.1,-.1,-.2,.1,.1,0,0,-.1,0,0,0,0,0,-.2" class="s1_1">Notebook 1 Copy</text>
<path d="M938.6,153.4L706.1,262.1" class="g19_1"/>
<path fill-rule="evenodd" d="M689.6,269.8l13.5,-17.1l8.3,17.6l-21.8,-.5Z" class="g1a_1"/>
<path fill-rule="evenodd" d="M540.4,430.4c0,-2.2,.6,-4.3,1.7,-6.3c1.1,-1.9,2.7,-3.5,4.6,-4.5c1.9,-1.1,4.1,-1.7,6.3,-1.7H826.2c2.2,0,4.3,.6,6.2,1.7c2,1.1,3.6,2.7,4.6,4.6c1.1,1.9,1.7,4.1,1.7,6.3v50.2c0,2.2,-.5,4.3,-1.7,6.2c-1,2,-2.6,3.6,-4.6,4.6c-1.9,1.1,-4,1.7,-6.2,1.7H552.9c-2.2,0,-4.3,-.5,-6.2,-1.7c-1.9,-1,-3.5,-2.6,-4.6,-4.6c-1.1,-1.9,-1.7,-4,-1.7,-6.2V430.4Z" class="g1b_1"/>
<path d="M540.4,430.4c0,-2.2,.6,-4.3,1.7,-6.3c1.1,-1.9,2.7,-3.5,4.6,-4.5c1.9,-1.1,4.1,-1.7,6.3,-1.7H826.2c2.2,0,4.3,.6,6.2,1.7c2,1.1,3.6,2.7,4.6,4.6c1.1,1.9,1.7,4.1,1.7,6.3v50.2c0,2.2,-.5,4.3,-1.7,6.2c-1,2,-2.6,3.6,-4.6,4.6c-1.9,1.1,-4,1.7,-6.2,1.7H552.9c-2.2,0,-4.3,-.5,-6.2,-1.7c-1.9,-1,-3.5,-2.6,-4.6,-4.6c-1.1,-1.9,-1.7,-4,-1.7,-6.2V430.4Z" class="g1c_1"/>
<g fill="#FFFFFF"  clip-path="url(#c0_1)">
<use xlink:href="#f0_d" transform="matrix(18,0,0,18,570.2,466.6)"/>
<use xlink:href="#f0_e" transform="matrix(18,0,0,18,587.9,466.6)"/>
<use xlink:href="#f0_f" transform="matrix(18,0,0,18,602.4,466.6)"/>
<use xlink:href="#f0_g" transform="matrix(18,0,0,18,611.4,466.6)"/>
<use xlink:href="#f0_h" transform="matrix(18,0,0,18,625.1,466.6)"/>
<use xlink:href="#f0_e" transform="matrix(18,0,0,18,639.5,466.6)"/>
<use xlink:href="#f0_e" transform="matrix(18,0,0,18,654,466.6)"/>
<use xlink:href="#f0_i" transform="matrix(18,0,0,18,668.5,466.6)"/>
<use xlink:href="#f0_j" transform="matrix(18,0,0,18,687.2,466.6)"/>
<use xlink:href="#f0_6" transform="matrix(18,0,0,18,707.4,466.6)"/>
<use xlink:href="#f0_1c" transform="matrix(18,0,0,18,720.7,466.6)"/>
<use xlink:href="#f0_g" transform="matrix(18,0,0,18,731.8,466.6)"/>
<use xlink:href="#f0_12" transform="matrix(18,0,0,18,745.7,466.6)"/>
<use xlink:href="#f0_13" transform="matrix(18,0,0,18,757.2,466.6)"/>
<use xlink:href="#f0_f" transform="matrix(18,0,0,18,771.7,466.6)"/>
<use xlink:href="#f0_g" transform="matrix(18,0,0,18,780.7,466.6)"/>
<use xlink:href="#f0_10" transform="matrix(18,0,0,18,794.4,466.6)"/>
</g>
<text clip-path="url(#c0_1)" x="570.2" y="466.6" dx="0,0,0,-.2,.1,-.1,0,0,0,0,0,0,-.1,-.7,.2,-.1,.1,-.2,.1" class="s1_1">Notebook 1 Executed</text>
<path d="M689.6,345v6.5m0,6.5v6.5m0,6.5v6.5m0,6.5v6.5m0,6.5l.1,2.7" class="g19_1"/>
<path fill-rule="evenodd" d="M689.7,417.9l-9.8,-19.5h19.5l-9.7,19.5Z" class="g1a_1"/>
<path d="M689.6,493.2L901.2,605" class="g19_1"/>
<path fill-rule="evenodd" d="M917.3,613.5L895.5,613l9.1,-17.2l12.7,17.7Z" class="g1a_1"/>
<path d="M1237,153.4c4.6,0,9.1,.5,13.6,1.6m4.5,1.2c4.2,1.3,8.4,3,12.6,5.2m4.1,2.2c3.8,2.2,7.6,4.8,11.3,7.7m3.6,2.8c3.5,2.9,6.9,6.1,10.3,9.6m3,3.2c3.1,3.3,6.1,6.8,9,10.4m2.9,3.8c2.7,3.5,5.3,7.2,7.9,11.1m2.5,3.8c2.5,3.9,4.8,7.9,7.2,12.1m2.2,3.9c2.1,4,4.2,8,6.2,12.2m2,4.1c1.9,4.2,3.8,8.4,5.6,12.8m1.7,4.2c1.7,4.2,3.3,8.5,4.8,12.8m1.5,4.4c1.5,4.4,2.9,8.7,4.2,13.2m1.3,4.4c1.2,4.4,2.4,8.8,3.4,13.3m1.1,4.5c1,4.5,2,9,2.8,13.5m.8,4.5c.8,4.5,1.5,9.1,2.1,13.7m.6,4.5c.6,4.6,1.1,9.2,1.5,13.8m.3,4.5c.3,4.6,.6,9.2,.7,13.8m.1,4.6c0,1.7,0,3.4,0,5.2c0,2.9,0,5.8,0,8.7m-.1,4.6c-.2,4.6,-.3,9.2,-.6,13.7m-.3,4.6c-.3,4.6,-.6,9.2,-1,13.8m-.5,4.6c-.4,4.6,-1,9.1,-1.5,13.6m-.6,4.5c-.7,4.6,-1.4,9.2,-2.2,13.8m-.8,4.5c-.8,4.5,-1.7,9,-2.6,13.3m-1,4.5c-1,4.6,-2.1,9.2,-3.3,13.6m-1.1,4.4c-1.2,4.5,-2.5,8.8,-3.8,13.1m-1.5,4.5c-1.4,4.5,-3,8.8,-4.5,13m-1.6,4.2c-1.7,4.4,-3.5,8.8,-5.3,12.9m-1.9,4.2c-2,4.2,-4,8.4,-6.1,12.3m-2.2,4.1c-2.3,4.1,-4.7,8,-7,11.6m-2.6,3.9c-2.8,3.9,-5.6,7.6,-8.5,11m-2.8,3.3c-3.4,3.6,-6.8,6.8,-10.2,9.7m-3.4,2.6c-4,2.9,-8.1,5.2,-12.1,6.9" class="g1d_1"/>
<path fill-rule="evenodd" d="M1268.8,638.6l12.2,-9.4l2.6,13.5l-14.8,-4.1Z" class="g1b_1"/>
<g clip-path="url(#c7_1)" opacity="0.4">
<path fill-rule="evenodd" d="M1338.3,484.4h-60.6V440.5h121.2v43.9h-60.6Z" class="g0_1"/>
</g>
<g fill="#000000"  clip-path="url(#c0_1)">
<use xlink:href="#f0_1m" transform="matrix(18,0,0,18,1288.5,473.5)"/>
<use xlink:href="#f0_1l" transform="matrix(18,0,0,18,1305.6,473.5)"/>
<use xlink:href="#f0_1q" transform="matrix(18,0,0,18,1321.5,473.5)"/>
<use xlink:href="#f0_1m" transform="matrix(18,0,0,18,1334.2,473.5)"/>
</g>
<text clip-path="url(#c0_1)" x="1288.5" y="473.5" class="s1_1">HASH</text>
<g clip-path="url(#c8_1)" opacity="0.4">
<path fill-rule="evenodd" d="M1318.3,260.2h-80.7V216.4h161.3v43.8h-80.6Z" class="g0_1"/>
</g>
<g fill="#000000"  clip-path="url(#c0_1)">
<use xlink:href="#f0_o" transform="matrix(18,0,0,18,1248.5,249.3)"/>
<use xlink:href="#f0_3" transform="matrix(18,0,0,18,1266.1,249.3)"/>
<use xlink:href="#f0_p" transform="matrix(18,0,0,18,1280.9,249.3)"/>
</g>
<text clip-path="url(#c0_1)" x="1248.5" y="249.3" dx="0,-.1,-.1" class="s1_1">URI</text>

</g>

</svg>
