<svg width="375" height="100" viewBox="0 0 375 100" fill="none" xmlns="http://www.w3.org/2000/svg">
<path d="M202.265 88.5742C197.06 87.1061 193.349 84.7705 191.134 81.5674C188.945 78.3643 187.851 74.4938 187.851 69.9561V61.748C187.851 58.7585 187.17 56.4362 185.809 54.7812C184.447 53.0996 182.352 52.2588 179.522 52.2588V46.373C182.352 46.373 184.447 45.5589 185.809 43.9307C187.17 42.2757 187.851 39.9401 187.851 36.9238V28.6758C187.851 24.1113 188.945 20.2409 191.134 17.0645C193.349 13.8613 197.06 11.5257 202.265 10.0576L203.866 14.7422C200.93 15.6764 198.835 17.3581 197.58 19.7871C196.352 22.1895 195.738 25.1523 195.738 28.6758V36.9238C195.738 39.7266 195.178 42.1956 194.057 44.3311C192.936 46.4665 191.241 48.1348 188.972 49.3359C191.241 50.5638 192.936 52.2588 194.057 54.4209C195.178 56.5563 195.738 58.9987 195.738 61.748V69.9561C195.738 73.4795 196.352 76.429 197.58 78.8047C198.835 81.207 200.93 82.8887 203.866 83.8496L202.265 88.5742Z" fill="#F37726"/>
<path d="M215.12 68.564C212.488 68.564 210.196 67.9552 208.245 66.7378C206.293 65.5024 204.78 63.7926 203.706 61.6084C202.632 59.4242 202.095 56.8997 202.095 54.0352V52.9072C202.095 50.1501 202.614 47.6794 203.652 45.4951C204.691 43.3109 206.186 41.5832 208.137 40.312C210.089 39.0409 212.416 38.4053 215.12 38.4053C217.465 38.4053 219.515 38.7902 221.27 39.5601C223.042 40.3299 224.528 41.3862 225.728 42.729L225.862 49.7114H221.726L220.813 44.6357C220.204 44.0091 219.443 43.5078 218.53 43.1318C217.617 42.7559 216.543 42.5679 215.308 42.5679C213.732 42.5679 212.345 43.0334 211.145 43.9644C209.963 44.8953 209.041 46.1396 208.379 47.6973C207.716 49.2549 207.385 50.9915 207.385 52.9072V54.0352C207.385 57.222 208.075 59.7554 209.453 61.6353C210.832 63.4972 212.712 64.4282 215.093 64.4282C216.883 64.4282 218.369 63.9359 219.551 62.9512C220.732 61.9665 221.458 60.6147 221.726 58.896H226.479L226.533 59.0571C226.444 60.7222 225.951 62.2798 225.056 63.73C224.161 65.1802 222.881 66.3529 221.216 67.248C219.569 68.1253 217.537 68.564 215.12 68.564ZM240.605 68.564C237.58 68.564 235.279 67.8299 233.704 66.3618C232.128 64.8758 231.34 62.79 231.34 60.1045C231.34 57.3473 232.468 55.1362 234.724 53.4712C236.98 51.7882 240.113 50.9468 244.124 50.9468H249.307V48.1001C249.307 46.3455 248.77 44.9849 247.695 44.0181C246.639 43.0513 245.144 42.5679 243.21 42.5679C241.993 42.5679 240.937 42.7201 240.042 43.0244C239.146 43.3109 238.332 43.7137 237.598 44.2329L237.034 48.2881H232.952V41.6279C235.583 39.4795 239.03 38.4053 243.291 38.4053C246.818 38.4053 249.584 39.2467 251.589 40.9297C253.595 42.6126 254.597 45.0207 254.597 48.1538V62.1455C254.597 62.5215 254.597 62.8885 254.597 63.2466C254.615 63.6047 254.642 63.9627 254.678 64.3208L257.498 64.6162V68H249.897C249.593 66.5319 249.405 65.1981 249.333 63.9985C248.313 65.3055 247.033 66.3976 245.493 67.2749C243.971 68.1343 242.342 68.564 240.605 68.564ZM241.384 64.1328C243.139 64.1328 244.741 63.7121 246.191 62.8706C247.642 62.0291 248.68 61.0176 249.307 59.8359V54.5723H243.936C241.501 54.5723 239.674 55.1541 238.457 56.3179C237.24 57.4816 236.631 58.7796 236.631 60.2119C236.631 62.8258 238.215 64.1328 241.384 64.1328ZM274.739 68.564C272.107 68.564 269.815 67.9552 267.864 66.7378C265.912 65.5024 264.399 63.7926 263.325 61.6084C262.251 59.4242 261.714 56.8997 261.714 54.0352V52.9072C261.714 50.1501 262.233 47.6794 263.271 45.4951C264.31 43.3109 265.805 41.5832 267.756 40.312C269.708 39.0409 272.035 38.4053 274.739 38.4053C277.084 38.4053 279.134 38.7902 280.889 39.5601C282.661 40.3299 284.147 41.3862 285.347 42.729L285.481 49.7114H281.345L280.432 44.6357C279.823 44.0091 279.062 43.5078 278.149 43.1318C277.236 42.7559 276.162 42.5679 274.927 42.5679C273.351 42.5679 271.964 43.0334 270.764 43.9644C269.583 44.8953 268.66 46.1396 267.998 47.6973C267.336 49.2549 267.004 50.9915 267.004 52.9072V54.0352C267.004 57.222 267.694 59.7554 269.072 61.6353C270.451 63.4972 272.331 64.4282 274.712 64.4282C276.502 64.4282 277.988 63.9359 279.17 62.9512C280.352 61.9665 281.077 60.6147 281.345 58.896H286.099L286.152 59.0571C286.063 60.7222 285.57 62.2798 284.675 63.73C283.78 65.1802 282.5 66.3529 280.835 67.248C279.188 68.1253 277.156 68.564 274.739 68.564ZM289.617 68V64.6162L293.994 63.8643V30.2681L289.617 29.5161V26.1055H299.285V42.8096C300.287 41.4131 301.514 40.3299 302.964 39.5601C304.414 38.7902 306.025 38.4053 307.798 38.4053C310.913 38.4053 313.33 39.3363 315.049 41.1982C316.768 43.0602 317.627 45.9248 317.627 49.792V63.8643L322.004 64.6162V68H307.959V64.6162L312.336 63.8643V49.7383C312.336 45.0475 310.286 42.7021 306.187 42.7021C304.736 42.7021 303.411 43.0513 302.212 43.7495C301.03 44.4299 300.055 45.3608 299.285 46.5425V63.8643L303.662 64.6162V68H289.617ZM338.44 68.564C335.754 68.564 333.418 67.9552 331.431 66.7378C329.443 65.5024 327.904 63.7926 326.812 61.6084C325.737 59.4242 325.2 56.8997 325.2 54.0352V52.8535C325.2 50.0964 325.764 47.6346 326.892 45.4683C328.038 43.284 329.551 41.5653 331.431 40.312C333.328 39.0409 335.396 38.4053 337.634 38.4053C341.537 38.4053 344.491 39.5869 346.497 41.9502C348.52 44.3135 349.531 47.4645 349.531 51.4033V54.7065H330.679L330.598 54.8408C330.652 57.6338 331.359 59.9344 332.72 61.7427C334.08 63.533 335.987 64.4282 338.44 64.4282C340.23 64.4282 341.797 64.1776 343.14 63.6763C344.5 63.1571 345.673 62.4499 346.658 61.5547L348.726 64.9922C347.687 65.9948 346.309 66.8452 344.59 67.5435C342.889 68.2238 340.839 68.564 338.44 68.564ZM330.84 50.5708H344.241V49.8726C344.241 47.7957 343.686 46.0591 342.576 44.6626C341.466 43.2661 339.819 42.5679 337.634 42.5679C335.862 42.5679 334.349 43.3198 333.096 44.8237C331.842 46.3097 331.073 48.1807 330.786 50.4365L330.84 50.5708Z" fill="#616161"/>
<path d="M13.47 71.575V39.565H8.795V70.805C8.795 72.2717 8.61167 73.28 8.245 73.83C7.87833 74.4167 7.18167 74.71 6.155 74.71H5.165C5.01833 74.71 4.89 74.6917 4.78 74.655C4.63333 74.655 4.46833 74.6367 4.285 74.6V78.615C5.01833 78.7617 5.80667 78.835 6.65 78.835C8.74 78.835 10.39 78.2483 11.6 77.075C12.8467 75.9383 13.47 74.105 13.47 71.575ZM44.2524 68V39.565H39.5774V55.625C39.5774 56.9083 39.394 58.1 39.0274 59.2C38.6974 60.2633 38.1841 61.1983 37.4874 62.005C36.7907 62.8117 35.9107 63.435 34.8474 63.875C33.8207 64.315 32.5924 64.535 31.1624 64.535C29.3657 64.535 27.954 64.0217 26.9274 62.995C25.9007 61.9683 25.3874 60.575 25.3874 58.815V39.565H20.7124V58.265C20.7124 59.805 20.859 61.2167 21.1524 62.5C21.4824 63.7467 22.0324 64.8283 22.8024 65.745C23.5724 66.6617 24.5807 67.3767 25.8274 67.89C27.0741 68.3667 28.6324 68.605 30.5024 68.605C32.5924 68.605 34.4074 68.2017 35.9474 67.395C37.4874 66.5517 38.7524 65.25 39.7424 63.49H39.8524V68H44.2524ZM51.4389 39.565V78.835H56.1139V64.205H56.2239C56.7372 65.0483 57.3606 65.7633 58.0939 66.35C58.8639 66.9 59.6706 67.34 60.5139 67.67C61.3572 68 62.2006 68.2383 63.0439 68.385C63.9239 68.5317 64.7122 68.605 65.4089 68.605C67.5722 68.605 69.4606 68.22 71.0739 67.45C72.7239 66.68 74.0806 65.635 75.1439 64.315C76.2439 62.9583 77.0506 61.3817 77.5639 59.585C78.1139 57.7883 78.3889 55.8817 78.3889 53.865C78.3889 51.8483 78.1139 49.9417 77.5639 48.145C77.0139 46.3483 76.1889 44.7717 75.0889 43.415C74.0256 42.0217 72.6689 40.9217 71.0189 40.115C69.4056 39.3083 67.4989 38.905 65.2989 38.905C63.3189 38.905 61.5039 39.2717 59.8539 40.005C58.2039 40.7017 56.9939 41.8383 56.2239 43.415H56.1139V39.565H51.4389ZM73.4389 53.535C73.4389 54.9283 73.2922 56.285 72.9989 57.605C72.7056 58.925 72.2289 60.0983 71.5689 61.125C70.9089 62.1517 70.0289 62.9767 68.9289 63.6C67.8656 64.2233 66.5272 64.535 64.9139 64.535C63.3006 64.535 61.9256 64.2417 60.7889 63.655C59.6522 63.0317 58.7172 62.225 57.9839 61.235C57.2872 60.245 56.7739 59.1083 56.4439 57.825C56.1139 56.505 55.9489 55.1483 55.9489 53.755C55.9489 52.435 56.0956 51.1333 56.3889 49.85C56.7189 48.5667 57.2322 47.43 57.9289 46.44C58.6256 45.4133 59.5239 44.5883 60.6239 43.965C61.7239 43.3417 63.0622 43.03 64.6389 43.03C66.1422 43.03 67.4439 43.3233 68.5439 43.91C69.6806 44.4967 70.5972 45.285 71.2939 46.275C72.0272 47.265 72.5589 48.4017 72.8889 49.685C73.2556 50.9317 73.4389 52.215 73.4389 53.535ZM95.0414 71.795C94.4914 73.1883 93.9414 74.3617 93.3914 75.315C92.8781 76.2683 92.2914 77.0383 91.6314 77.625C91.0081 78.2483 90.2931 78.6883 89.4864 78.945C88.7164 79.2383 87.8181 79.385 86.7914 79.385C86.2414 79.385 85.6914 79.3483 85.1414 79.275C84.5914 79.2017 84.0598 79.0733 83.5464 78.89V74.6C83.9498 74.7833 84.4081 74.93 84.9214 75.04C85.4714 75.1867 85.9298 75.26 86.2964 75.26C87.2498 75.26 88.0381 75.0217 88.6614 74.545C89.3214 74.105 89.8164 73.4633 90.1464 72.62L92.0714 67.835L80.7964 39.565H86.0764L94.3814 62.83H94.4914L102.466 39.565H107.416L95.0414 71.795ZM117.866 39.565V31.04H113.191V39.565H108.351V43.69H113.191V61.785C113.191 63.105 113.32 64.1683 113.576 64.975C113.833 65.7817 114.218 66.405 114.731 66.845C115.281 67.285 115.978 67.5967 116.821 67.78C117.701 67.9267 118.746 68 119.956 68H123.531V63.875H121.386C120.653 63.875 120.048 63.8567 119.571 63.82C119.131 63.7467 118.783 63.6183 118.526 63.435C118.27 63.2517 118.086 62.995 117.976 62.665C117.903 62.335 117.866 61.895 117.866 61.345V43.69H123.531V39.565H117.866ZM148.47 51.06H132.135C132.208 49.96 132.447 48.9333 132.85 47.98C133.253 46.99 133.803 46.1283 134.5 45.395C135.197 44.6617 136.022 44.0933 136.975 43.69C137.965 43.25 139.065 43.03 140.275 43.03C141.448 43.03 142.512 43.25 143.465 43.69C144.455 44.0933 145.298 44.6617 145.995 45.395C146.728 46.0917 147.297 46.935 147.7 47.925C148.14 48.915 148.397 49.96 148.47 51.06ZM152.98 58.98H148.36C147.957 60.85 147.113 62.2433 145.83 63.16C144.583 64.0767 142.97 64.535 140.99 64.535C139.45 64.535 138.112 64.2783 136.975 63.765C135.838 63.2517 134.903 62.5733 134.17 61.73C133.437 60.85 132.905 59.86 132.575 58.76C132.245 57.6233 132.098 56.4317 132.135 55.185H153.42C153.493 53.4617 153.328 51.6467 152.925 49.74C152.558 47.8333 151.862 46.0733 150.835 44.46C149.845 42.8467 148.507 41.5267 146.82 40.5C145.17 39.4367 143.08 38.905 140.55 38.905C138.607 38.905 136.81 39.2717 135.16 40.005C133.547 40.7383 132.135 41.765 130.925 43.085C129.752 44.405 128.835 45.9633 128.175 47.76C127.515 49.5567 127.185 51.5367 127.185 53.7C127.258 55.8633 127.57 57.8617 128.12 59.695C128.707 61.5283 129.568 63.105 130.705 64.425C131.842 65.745 133.235 66.7717 134.885 67.505C136.572 68.2383 138.552 68.605 140.825 68.605C144.052 68.605 146.728 67.7983 148.855 66.185C150.982 64.5717 152.357 62.17 152.98 58.98ZM158.101 39.565V68H162.776V55.35C162.776 53.5167 162.959 51.9033 163.326 50.51C163.693 49.08 164.279 47.87 165.086 46.88C165.893 45.89 166.956 45.1383 168.276 44.625C169.596 44.1117 171.191 43.855 173.061 43.855V38.905C170.531 38.8317 168.441 39.345 166.791 40.445C165.141 41.545 163.748 43.25 162.611 45.56H162.501V39.565H158.101Z" fill="#616161"/>
<path d="M349.683 88.5742L348.081 83.8496C350.964 82.8887 353.033 81.207 354.287 78.8047C355.542 76.429 356.169 73.4795 356.169 69.9561V61.748C356.169 58.8919 356.77 56.3962 357.971 54.2607C359.172 52.1253 361.027 50.4837 363.536 49.3359C361.027 48.2415 359.172 46.6266 357.971 44.4912C356.77 42.3558 356.169 39.8333 356.169 36.9238V28.6758C356.169 25.1523 355.542 22.1895 354.287 19.7871C353.033 17.3581 350.964 15.6764 348.081 14.7422L349.683 10.0576C354.861 11.5257 358.545 13.8613 360.733 17.0645C362.949 20.2409 364.057 24.1113 364.057 28.6758V36.9238C364.057 39.9401 364.737 42.2757 366.099 43.9307C367.46 45.5589 369.569 46.373 372.425 46.373V52.2588C369.569 52.2588 367.46 53.0996 366.099 54.7812C364.737 56.4362 364.057 58.7585 364.057 61.748V69.9561C364.057 74.4938 362.949 78.3643 360.733 81.5674C358.545 84.7705 354.861 87.1061 349.683 88.5742Z" fill="#F37726"/>
</svg>
