<svg width="128" height="128" viewBox="0 0 128 128" fill="none" xmlns="http://www.w3.org/2000/svg">
<rect width="128" height="128" fill="white" rx="15" />
<path d="M32.7466 72.8306C29.5562 72.8306 26.6558 72.1978 24.0454 70.9321C21.4614 69.6665 19.3784 67.7549 17.7964 65.1973C16.2407 62.6396 15.3838 59.436 15.2256 55.5864L15.3047 55.3491H22.7798C22.8853 59.2251 23.7686 62.0728 25.4297 63.8921C27.1172 65.7114 29.5166 66.6211 32.6279 66.6211C35.8975 66.6211 38.2969 65.606 39.8262 63.5757C41.3555 61.519 42.1201 58.8823 42.1201 55.6655V20.5444L34.4473 19.5161V14.4141H56.3584V19.437L49.9116 20.5444V55.6655C49.9116 60.8335 48.4482 64.9863 45.5215 68.124C42.6211 71.2617 38.3628 72.8306 32.7466 72.8306ZM88.355 72.8306C82.5806 72.8306 77.7554 71.5649 73.8794 69.0337C70.0298 66.5024 67.1294 63.0352 65.1782 58.6318C63.2534 54.2285 62.291 49.2319 62.291 43.6421V42.8115C62.291 37.1689 63.3062 32.1592 65.3364 27.7822C67.3667 23.3789 70.2803 19.9116 74.0771 17.3804C77.874 14.8491 82.4092 13.5835 87.6826 13.5835C91.4004 13.5835 94.8018 14.1636 97.8867 15.3237C100.972 16.4839 103.529 17.9604 105.56 19.7534V32.1724H99.3501L98.5195 23.0757C95.8564 21.0454 92.231 20.0303 87.6431 20.0303C83.8726 20.0303 80.6821 21.0059 78.0718 22.957C75.4614 24.8818 73.4839 27.5449 72.1392 30.9463C70.7944 34.3477 70.1221 38.2764 70.1221 42.7324V43.6421C70.1221 50.8931 71.7173 56.5225 74.9077 60.5303C78.0981 64.5117 82.6729 66.5024 88.6318 66.5024C90.4775 66.5024 92.2837 66.2783 94.0503 65.8301C95.8169 65.3818 97.2803 64.8018 98.4404 64.0898L99.3105 56.061H105.401V68.5591C103.239 69.9038 100.655 70.9585 97.6494 71.7231C94.6436 72.4614 91.5454 72.8306 88.355 72.8306Z" fill="#616161"/>
<path d="M7.56055 81.7622L14.1865 79.5161C15.5342 83.5591 17.8926 86.4603 21.2617 88.2197C24.5934 89.9792 28.73 90.8589 33.6714 90.8589H45.1826C49.1882 90.8589 52.6883 91.7012 55.6831 93.3857C58.6779 95.0703 60.9801 97.672 62.5898 101.191C64.1247 97.672 66.3895 95.0703 69.3843 93.3857C72.3791 91.7012 75.9167 90.8589 79.9971 90.8589H91.5645C96.5059 90.8589 100.661 89.9792 104.03 88.2197C107.437 86.4603 109.795 83.5591 111.105 79.5161L117.675 81.7622C115.616 89.0246 112.341 94.1906 107.849 97.2603C103.394 100.367 97.9658 101.921 91.5645 101.921H79.9971C75.7669 101.921 72.4914 102.875 70.1704 104.785C67.8869 106.694 66.7451 109.651 66.7451 113.657H58.4907C58.4907 109.651 57.3115 106.694 54.9531 104.785C52.6322 102.875 49.3753 101.921 45.1826 101.921H33.6714C27.3075 101.921 21.8794 100.367 17.3872 97.2603C12.895 94.1906 9.61947 89.0246 7.56055 81.7622Z" fill="#F37726"/>
</svg>
